<?xml version="1.0" encoding="utf-8"?>
<!-- Generator: Adobe Illustrator 16.0.0, SVG Export Plug-In . SVG Version: 6.00 Build 0)  -->
<!DOCTYPE svg PUBLIC "-//W3C//DTD SVG 1.1//EN" "http://www.w3.org/Graphics/SVG/1.1/DTD/svg11.dtd">
<svg version="1.1" id="Layer_1" xmlns="http://www.w3.org/2000/svg" xmlns:xlink="http://www.w3.org/1999/xlink" x="0px" y="0px"
	 width="541.585px" height="612px" viewBox="0 0 541.585 612" enable-background="new 0 0 541.585 612" xml:space="preserve">
<g>
	<path fill="#364CA0" d="M433.091,0.463H47.031C21.057,0.463,0,21.518,0,47.494v468.684c0,25.974,21.057,47.028,47.031,47.028
		h386.061c25.975,0,47.029-21.054,47.029-47.028V47.494C480.121,21.518,459.066,0.463,433.091,0.463z M401.957,488.386H78.163
		c-8.017,0-14.518-6.5-14.518-14.517c0-8.014,6.5-14.516,14.518-14.516h323.792c8.018,0,14.521,6.502,14.521,14.516
		C416.476,481.886,409.972,488.386,401.957,488.386z M401.957,433.519H78.163c-8.017,0-14.518-6.501-14.518-14.515
		c0-8.017,6.5-14.517,14.518-14.517h323.792c8.018,0,14.521,6.5,14.521,14.517C416.476,427.018,409.972,433.519,401.957,433.519z
		 M401.957,378.652H78.163c-8.017,0-14.518-6.499-14.518-14.516s6.5-14.517,14.518-14.517h323.792c8.018,0,14.521,6.5,14.521,14.517
		S409.972,378.652,401.957,378.652z M401.957,323.786H78.163c-8.017,0-14.518-6.499-14.518-14.517s6.5-14.516,14.518-14.516h323.792
		c8.018-0.001,14.521,6.498,14.521,14.516S409.972,323.786,401.957,323.786z M401.957,268.916H78.163
		c-8.017,0-14.518-6.499-14.518-14.515c0-8.017,6.5-14.516,14.518-14.516h323.792c8.018,0,14.521,6.499,14.521,14.516
		S409.972,268.916,401.957,268.916z M401.957,214.049H78.163c-8.017,0-14.518-6.5-14.518-14.517c0-8.015,6.5-14.514,14.518-14.514
		h323.792c8.018,0,14.521,6.499,14.521,14.514C416.476,207.549,409.972,214.049,401.957,214.049z M401.957,159.181H78.163
		c-8.017,0-14.518-6.497-14.518-14.514s6.5-14.516,14.518-14.516h323.792c8.018,0,14.521,6.499,14.521,14.516
		S409.972,159.181,401.957,159.181z M401.957,104.315H78.163c-8.017,0-14.518-6.499-14.518-14.516c0-8.017,6.5-14.516,14.518-14.516
		h323.792c8.018,0,14.521,6.499,14.521,14.516C416.476,97.816,409.972,104.315,401.957,104.315z"/>
	<g>
		<circle fill="#FFFFFF" cx="383.729" cy="454.177" r="157.402"/>
		<path fill="#364CA0" d="M383.729,296.775c-86.931,0-157.401,70.471-157.401,157.401s70.471,157.402,157.401,157.402
			S541.13,541.107,541.13,454.177S470.66,296.775,383.729,296.775z M465.509,478.713h-57.248v57.246
			c0,13.547-10.98,24.531-24.532,24.531c-13.55,0-24.532-10.984-24.532-24.531v-57.246h-57.25c-13.55,0-24.535-10.985-24.535-24.532
			c0-13.555,10.985-24.536,24.535-24.536h57.25v-57.248c0-13.549,10.982-24.533,24.532-24.533c13.552,0,24.532,10.984,24.532,24.533
			v57.248h57.248c13.551,0,24.537,10.981,24.537,24.536C490.046,467.728,479.06,478.713,465.509,478.713z"/>
	</g>
</g>
</svg>
