<?xml version="1.0" encoding="utf-8"?>
<!-- Generator: Adobe Illustrator 16.0.0, SVG Export Plug-In . SVG Version: 6.00 Build 0)  -->
<!DOCTYPE svg PUBLIC "-//W3C//DTD SVG 1.1//EN" "http://www.w3.org/Graphics/SVG/1.1/DTD/svg11.dtd">
<svg version="1.1" id="Layer_1" xmlns="http://www.w3.org/2000/svg" xmlns:xlink="http://www.w3.org/1999/xlink" x="0px" y="0px"
	 width="512px" height="560px" viewBox="0 0 512 560" enable-background="new 0 0 512 560" xml:space="preserve">
<g>
	<g>
		<g>
			<g>
				<g>
					<path fill="#427ABC" d="M367.021,386.84l22.866-7.919c-0.446-4.294-1.195-8.498-2.221-12.595l-23.732-0.787
						c-1.741-5.563-4.18-10.816-7.209-15.664l14.058-17.879c-2.739-3.468-5.719-6.732-8.923-9.771l-19.215,11.478
						c-4.446-3.729-9.378-6.894-14.687-9.394l2.072-21.732c-4.185-1.513-8.511-2.728-12.952-3.619l-9.65,19.408
						c-2.715-0.335-5.477-0.519-8.284-0.524c-3.146-0.008-6.248,0.207-9.284,0.616l-9.95-19.301
						c-4.419,0.938-8.718,2.195-12.879,3.743l2.393,21.688c-5.335,2.577-10.285,5.824-14.733,9.645l-19.424-11.21
						c-3.133,3.052-6.056,6.318-8.73,9.793l14.325,17.671c-3.03,4.957-5.437,10.344-7.125,16.034l-23.773,1.13
						c-0.95,4.071-1.624,8.237-2.013,12.491l23.014,7.592c0.155,5.94,1.078,11.697,2.667,17.169l-20.667,14.719
						c1.389,3.838,3.024,7.557,4.887,11.127l24.964-6.442c3.253,4.75,7.091,9.063,11.413,12.841l-9.896,24.722
						c3.149,2.353,6.451,4.497,9.896,6.438l18.255-19.721c5.165,2.187,10.654,3.745,16.382,4.604l5.143,26.673
						c1.574,0.09,3.157,0.133,4.749,0.138c2.34,0.006,4.656-0.08,6.951-0.246l4.754-26.784c5.669-0.959,11.099-2.626,16.2-4.891
						l18.509,19.398c3.423-2.006,6.715-4.237,9.842-6.66l-10.259-24.565c4.182-3.809,7.887-8.122,11.02-12.855l24.991,6.058
						c1.829-3.642,3.424-7.427,4.757-11.332l-20.854-14.39C366.127,398.333,366.943,392.681,367.021,386.84z M298.778,437.356
						c-28.141-0.067-50.904-22.938-50.837-51.079c0.067-28.149,22.94-50.904,51.082-50.836c28.147,0.067,50.907,22.931,50.839,51.08
						C349.795,414.663,326.925,437.425,298.778,437.356z"/>
				</g>
			</g>
			<g>
				<path fill="#427ABC" d="M333.809,386.601c-0.046,19.283-15.712,34.872-34.989,34.825c-19.276-0.046-34.868-15.709-34.822-34.992
					c0.047-19.274,15.714-34.866,34.99-34.82C318.265,351.66,333.855,367.326,333.809,386.601z"/>
			</g>
		</g>
		<g>
			<g>
				<g>
					<path fill="#427ABC" d="M483.444,228.165L512,218.277c-0.56-5.366-1.494-10.617-2.778-15.734l-29.627-0.977
						c-2.178-6.946-5.225-13.507-9.006-19.558l17.556-22.332c-3.421-4.328-7.147-8.405-11.143-12.197l-23.996,14.329
						c-5.553-4.654-11.71-8.604-18.337-11.726l2.588-27.143c-5.229-1.889-10.628-3.404-16.177-4.516l-12.048,24.236
						c-3.391-0.421-6.839-0.646-10.342-0.653c-3.932-0.011-7.801,0.255-11.597,0.765l-12.427-24.104
						c-5.517,1.174-10.887,2.745-16.078,4.681l2.987,27.076c-6.661,3.22-12.842,7.278-18.396,12.047l-24.258-13.997
						c-3.915,3.808-7.562,7.896-10.899,12.227l17.881,22.07c-3.779,6.193-6.786,12.914-8.891,20.019l-29.686,1.417
						c-1.188,5.082-2.028,10.283-2.515,15.594l28.735,9.476c0.199,7.424,1.348,14.614,3.334,21.443l-25.806,18.378
						c1.731,4.795,3.774,9.436,6.104,13.897l31.168-8.048c4.06,5.931,8.851,11.319,14.247,16.032l-12.352,30.872
						c3.93,2.938,8.054,5.617,12.354,8.035l22.793-24.622c6.451,2.729,13.308,4.677,20.454,5.749l6.424,33.303
						c1.967,0.113,3.944,0.166,5.936,0.172c2.92,0.007,5.814-0.1,8.673-0.308l5.939-33.439c7.078-1.199,13.859-3.278,20.225-6.107
						l23.114,24.226c4.279-2.513,8.389-5.292,12.288-8.321l-12.805-30.674c5.221-4.752,9.844-10.145,13.756-16.052l31.209,7.565
						c2.282-4.553,4.273-9.278,5.938-14.152l-26.036-17.968C482.331,242.519,483.347,235.453,483.444,228.165z M398.231,291.241
						c-35.138-0.084-63.565-28.639-63.481-63.781c0.086-35.145,28.648-63.563,63.788-63.479
						c35.143,0.085,63.566,28.64,63.481,63.786C461.936,262.908,433.374,291.326,398.231,291.241z"/>
				</g>
			</g>
			<g>
				<path fill="#427ABC" d="M444.915,226.932c-0.062,25.699-20.944,46.478-46.637,46.416c-25.701-0.062-46.479-20.939-46.418-46.64
					c0.062-25.696,20.941-46.477,46.642-46.415C424.195,180.354,444.977,201.236,444.915,226.932z"/>
			</g>
		</g>
	</g>
	<g>
		<g>
			<g>
				<g>
					<polygon fill="#5D5E5E" points="223.574,457.752 235.323,426.465 199.282,399.945 163.121,426.557 176.189,457.752 					"/>
					<polygon fill="#3A3A3A" points="176.189,457.752 176.875,459.4 160.751,559.412 239.146,559.412 222.993,459.305 
						223.574,457.752 					"/>
				</g>
				<polygon fill="#D2D2D7" points="170.801,559.412 187.132,458.186 171.349,420.504 120.72,372.365 130.634,444.543 
					162.807,559.412 				"/>
				<polygon fill="#E4E4EA" points="237.236,559.412 269.782,443.221 279.697,371.027 227.017,420.361 212.778,458.281 
					229.092,559.412 				"/>
				<path fill="#F5F5F7" d="M237.988,440.635c10.418,7.666,16.72,0.842,19.069-2.707l33.198-68.232l-42.841-28.279l-10.109,18.209
					l-37.68,39.113l-36.665-35.713l-7.107-24.701l-47.532,31.365l32.412,66.621c0.893,1.775,7.465,13.543,20,4.332l38.551-28.377
					l36.738,27.043C236.605,439.66,237.253,440.092,237.988,440.635z"/>
				<path fill="#636363" d="M204.744,0.588h-10.048c-68.68,0-124.55,55.879-124.55,124.557v16.609v15.549v26.268
					c0,0,28.358-2.813,31.844-16.563l-0.024-0.014c1.199-1.301,2.204-2.785,2.907-4.445c16.088-0.486,91.224-1.068,134.13-52.891
					c5.122,14.979,22.446,43.346,55.771,52.279c0.691,1.807,1.711,3.436,2.959,4.846l-0.274,0.225
					c3.483,13.752,31.846,16.564,31.846,16.564v-26.379v-15.441v-16.607C329.303,56.467,273.426,0.588,204.744,0.588z
					 M298.657,158.063l1.2-0.867h0.167l-1.954,1.445L298.657,158.063z M298.046,158.438l0.132-0.424l0.417-0.818h0.17l-0.495,1.027
					L298.046,158.438z M294.743,160.994l-0.049-0.064l3.074-2.225l-0.73,0.701l-2.244,1.658L294.743,160.994z M297.276,160.27
					l-0.961,1.99c-0.008-0.002-0.012-0.002-0.021-0.006l-0.131-0.063c-0.021-0.008-0.052-0.025-0.065-0.035l1.566-3.117l0.04-0.037
					L297.276,160.27z"/>
				<path fill="#545454" d="M92.1,157.301v-15.547v-16.611c0-66.686,52.675-121.285,118.603-124.404
					c-1.978-0.094-3.959-0.15-5.957-0.15h-10.048c-68.68,0-124.55,55.877-124.55,124.555v16.611v15.547v26.27
					c0,0,12.532-1.252,21.953-6.119L92.1,157.301L92.1,157.301z"/>
				<path fill="#FBCB99" d="M314.341,165.516c-4.764-1.486-9.94-0.617-13.959,2.336c-4.014,2.955-6.389,7.646-6.389,12.635v44.688
					c0,4.982,2.369,9.674,6.389,12.627c2.729,2.01,5.994,3.057,9.293,3.057c1.561,0,3.142-0.232,4.664-0.713
					c3.01-0.939,5.961-2.289,8.78-4.02c1.654-1.014,3.111-2.334,4.282-3.881c1.737-0.891,3.28-2.096,4.576-3.557
					c6.33-7.16,9.825-16.346,9.825-25.863C341.803,185.625,330.77,170.629,314.341,165.516z"/>
				<path fill="#EDBA89" d="M99.521,167.85c-4.018-2.955-9.2-3.822-13.96-2.34c-16.422,5.119-27.461,20.115-27.461,37.316
					s11.034,32.191,27.461,37.314c1.524,0.484,3.101,0.717,4.666,0.717c3.299,0,6.567-1.047,9.294-3.055
					c4.018-2.957,6.389-7.646,6.389-12.633v-44.691C105.908,175.496,103.539,170.805,99.521,167.85z"/>
				<path fill="#FBCB99" d="M242.765,303.078c-3.082-2.953-7.223-4.502-11.519-4.344l-0.529,0.023
					c-0.954,0.035-1.909,0.158-2.847,0.361c-6.06,1.346-12.229,2.037-18.333,2.037h-19.169c-6.288,0-12.637-0.725-18.877-2.156
					c-4.664-1.076-9.547,0.043-13.275,3.018c-3.74,2.979-5.917,7.492-5.917,12.266v45.613l-0.008,0.158
					c-0.247,4.523,1.474,8.934,4.714,12.094l31.51,30.693c2.936,2.855,6.862,4.447,10.943,4.447c0.08,0,0.167,0,0.25,0
					c4.177-0.07,8.152-1.795,11.044-4.805l32.463-33.693c2.819-2.922,4.392-6.822,4.392-10.881v-43.508
					C247.604,310.121,245.857,306.031,242.765,303.078z"/>
				<path fill="#EDBA89" d="M202.633,398.135l-31.514-30.684c-3.245-3.164-4.963-7.578-4.714-12.104l0.012-0.15v-45.623
					c0-4.012,1.552-7.83,4.264-10.715c-4.412-0.773-8.949,0.355-12.467,3.154c-3.736,2.979-5.913,7.496-5.913,12.27v45.609
					l-0.012,0.152c-0.243,4.533,1.474,8.943,4.714,12.104l31.51,30.691c2.934,2.855,6.862,4.447,10.943,4.447
					c0.083,0,0.17,0,0.253,0c4.174-0.068,8.147-1.799,11.039-4.809l0.145-0.146C207.798,401.803,204.908,400.357,202.633,398.135z"
					/>
				<path fill="#FBCB99" d="M291.63,152.715c-1.899-0.707-3.686-1.529-5.441-2.406c-26.344-12.293-37.281-28.285-41.687-37.83
					c-0.262-0.357-0.527-0.754-0.789-1.254c-3.15-5.791-8.062-2.125-8.062-2.125l-0.021-0.012
					c-24.608,18.873-51.484,29.91-73.832,36.334c-8.702,2.57-17.034,4.43-24.569,5.781c-14.977,2.748-24.606,3.111-24.606,3.111
					c-8.208,0.588-14.561,7.422-14.561,15.645v63.984c0,50.898,41.41,92.299,92.305,92.299h19.171
					c50.886,0,92.294-41.402,92.294-92.299V167.41C301.835,160.859,297.761,155.002,291.63,152.715z"/>
				<path fill="#EDBA89" d="M116.885,233.945v-63.986c0-8.221,6.352-15.053,14.552-15.643c0,0,9.627-0.365,24.614-3.113
					c7.535-1.35,15.871-3.209,24.573-5.781c19.773-5.686,43.097-14.998,65.264-30.145c-0.519-0.979-0.979-1.914-1.384-2.797
					c-0.262-0.359-0.527-0.756-0.791-1.254c-3.152-5.793-8.062-2.125-8.062-2.125l-0.02-0.012
					c-24.608,18.871-51.486,29.91-73.833,36.33c-8.7,2.574-17.032,4.434-24.567,5.781c-14.977,2.75-24.606,3.115-24.606,3.115
					c-8.208,0.586-14.565,7.422-14.565,15.643v63.986c0,50.898,41.41,92.299,92.311,92.299h18.805
					C158.29,326.242,116.885,284.842,116.885,233.945z"/>
				<g>
					<path fill="#878787" d="M20.259,559.412H173.12l-54.78-195.553l-56.494,23.545l-0.075,0.027
						C38.829,395.484,0,424.703,0,483.096v56.08C0.303,545.221,2.859,559.412,20.259,559.412z"/>
					<path fill="#878787" d="M397.68,539.854v-56.748c0-59.115-40.383-88.412-61.856-95.707l-54.365-22.648l-54.533,194.662h150.532
						C394.237,559.412,397.216,546.215,397.68,539.854z"/>
				</g>
				<g>
					<path fill="#5B5B5B" d="M118.34,363.859l-56.494,23.545l-0.075,0.027C38.829,395.484,0,424.703,0,483.096v56.08
						c0.302,6.041,2.859,20.234,20.258,20.234h2.538v-76.314c0-58.393,38.825-87.611,61.77-95.664l0.08-0.027l36.073-15.041
						L118.34,363.859z"/>
					<path fill="#5B5B5B" d="M334.02,559.412v-77.959c0-4.9-3.965-8.873-8.862-8.873c-4.898,0-8.862,3.973-8.862,8.873v77.959
						H334.02z"/>
					<path fill="#5B5B5B" d="M83.603,559.412v-77.959c0-4.9-3.963-8.873-8.858-8.873s-8.866,3.973-8.866,8.873v77.959H83.603z"/>
				</g>
				<path fill="#EDBA89" d="M208.946,241.461c3.26,0,5.912,2.648,5.912,5.906s-2.651,5.908-5.912,5.908h-15.095
					c-3.259,0-5.912-2.65-5.912-5.908v-28.803c0-3.256,2.653-5.91,5.912-5.91c3.256,0,5.909,2.654,5.909,5.91v22.896H208.946
					L208.946,241.461z"/>
			</g>
		</g>
	</g>
</g>
</svg>
