<?xml version="1.0" encoding="utf-8"?>
<!-- Generator: Adobe Illustrator 16.0.0, SVG Export Plug-In . SVG Version: 6.00 Build 0)  -->
<!DOCTYPE svg PUBLIC "-//W3C//DTD SVG 1.1//EN" "http://www.w3.org/Graphics/SVG/1.1/DTD/svg11.dtd">
<svg version="1.1" id="Layer_1" xmlns="http://www.w3.org/2000/svg" xmlns:xlink="http://www.w3.org/1999/xlink" x="0px" y="0px"
	 width="578.084px" height="560px" viewBox="0 0 578.084 560" enable-background="new 0 0 578.084 560" xml:space="preserve">
<g>
	<path fill="#FFD671" d="M551.745,257.994v272.871c0,16.211-11.756,29.34-26.274,29.34H52.548c-14.519,0-26.274-13.129-26.274-29.34
		V257.994H551.745z"/>
	<path fill="#EAFAFF" d="M435.716,350.418v117.363H142.304V350.418H435.716z"/>
	<path fill="#B3B3B3" d="M551.745,191.808H26.273C11.756,191.808,0,200.15,0,210.447v74.556c0,10.298,11.756,18.64,26.273,18.64
		h525.472c14.519,0,26.271-8.342,26.271-18.64v-74.556C578.018,200.15,566.262,191.808,551.745,191.808z"/>
	<g>
		<path fill="#826E41" d="M24.939,218.382H124.7v58.682H24.939V218.382z"/>
		<path fill="#826E41" d="M453.319,218.382h99.76v58.682h-99.76V218.382L453.319,218.382z"/>
	</g>
	<g>
		<path fill="#FFD671" d="M449.309,281.466H128.707c0-12.778,0-268.911,0-281.671h320.603V281.466z"/>
		<path d="M226.137,218.382c5.787,0,10.477-4.689,10.477-10.475c0-28.893,23.505-52.396,52.396-52.396
			c28.891,0,52.396,23.503,52.396,52.396c0,5.785,4.688,10.475,10.477,10.475c5.787,0,10.479-4.689,10.479-10.475
			c0-40.45-32.904-73.354-73.352-73.354s-73.353,32.903-73.353,73.354C215.657,213.692,220.348,218.382,226.137,218.382z"/>
		<path d="M226.137,113.595c5.787,0,10.477-4.693,10.477-10.479V82.158c0-5.786-4.689-10.479-10.477-10.479
			c-5.789,0-10.479,4.693-10.479,10.479v20.958C215.657,108.901,220.348,113.595,226.137,113.595z"/>
		<path d="M351.881,113.595c5.787,0,10.479-4.693,10.479-10.479V82.158c0-5.786-4.691-10.479-10.479-10.479
			c-5.789,0-10.478,4.693-10.478,10.479v20.958C341.404,108.901,346.092,113.595,351.881,113.595z"/>
	</g>
	<rect x="128.428" y="271.684" fill="#3F3D3D" width="321.16" height="10.151"/>
	<rect x="26.655" y="303.148" fill="#5B5A5A" width="524.705" height="10.148"/>
	<path fill="#777777" d="M442.716,345.069H149.304c-8.104,0-14.67,6.567-14.67,14.672v117.361c0,8.104,6.566,14.674,14.67,14.674
		h293.411c8.104,0,14.668-6.569,14.668-14.674V359.741C457.384,351.639,450.817,345.069,442.716,345.069z M428.044,462.433H163.975
		v-88.021h264.068V462.433z"/>
	<path fill="#B3B3B3" d="M435.716,335.746H142.304c-8.104,0-14.67,6.569-14.67,14.672v117.363c0,8.104,6.566,14.672,14.67,14.672
		h293.411c8.104,0,14.668-6.568,14.668-14.672V350.418C450.384,342.315,443.817,335.746,435.716,335.746z M421.044,453.109H156.975
		v-88.021h264.068V453.109z"/>
	<g>
		<text transform="matrix(1 0 0 1 189.8777 441.9551)" fill="#5B5A5A" font-family="'GillSans-UltraBold'" font-size="84.2512">QEC</text>
	</g>
</g>
</svg>
