<?xml version="1.0" encoding="utf-8"?>
<!-- Generator: Adobe Illustrator 16.0.0, SVG Export Plug-In . SVG Version: 6.00 Build 0)  -->
<!DOCTYPE svg PUBLIC "-//W3C//DTD SVG 1.1//EN" "http://www.w3.org/Graphics/SVG/1.1/DTD/svg11.dtd">
<svg version="1.1" id="Layer_1" xmlns="http://www.w3.org/2000/svg" xmlns:xlink="http://www.w3.org/1999/xlink" x="0px" y="0px"
	 width="578.083px" height="560px" viewBox="0 0 578.083 560" enable-background="new 0 0 578.083 560" xml:space="preserve">
<g>
	<path fill="#FFCE55" d="M289.04,74.803C198,164.397,146.487,214.43,54.25,302.857V560h469.584V302.857
		C431.592,213.266,380.083,163.233,289.04,74.803z M291.609,214.928h36.966v35.905h-36.966V214.928z M291.609,255.819h36.966v35.902
		h-36.966V255.819z M249.509,214.928h36.965v35.905h-36.965V214.928z M249.509,255.819h36.965v35.902h-36.965V255.819z
		 M358.334,538.06H219.75V405.735c0-37.646,31.711-67.306,69.291-67.306c38.76,0,69.295,30.799,69.295,67.306V538.06H358.334z"/>
	<g>
		<rect x="431.592" y="81.786" fill="#CCCCCC" width="65.889" height="111.699"/>
		<rect x="431.633" y="68.304" fill="#999696" width="65.807" height="30.952"/>
		<rect x="425.428" y="62.321" fill="#CCCCCC" width="78.209" height="30.95"/>
	</g>
	<path fill="#8E8E8E" d="M524.432,302.857C432.194,213.266,380.679,163.232,289.64,74.802
		c-46.718,44.216-82.658,79.121-118.595,114.028c-35.938,34.905-71.877,69.812-117.396,114.025v52.359
		C145.887,265.623,197.4,215.59,288.444,127.161c92.234,89.591,143.75,139.624,234.791,228.054v6.981l0,0v-59.343h1.197V302.857
		L524.432,302.857z"/>
	<path fill="#CCCCCC" d="M565.762,255.153L315.396,11.974c-14.376-13.964-39.531-13.964-53.906,0L12.323,255.153
		c-14.376,13.964-14.376,38.399,0,52.358c14.375,13.964,39.53,13.964,53.907,0L289.041,91.094l222.815,216.417
		c14.377,13.964,39.527,13.964,53.904,0C580.133,292.385,580.133,269.117,565.762,255.153z"/>
</g>
</svg>
