<?xml version="1.0" encoding="utf-8"?>
<!-- Generator: Adobe Illustrator 16.0.0, SVG Export Plug-In . SVG Version: 6.00 Build 0)  -->
<!DOCTYPE svg PUBLIC "-//W3C//DTD SVG 1.1//EN" "http://www.w3.org/Graphics/SVG/1.1/DTD/svg11.dtd">
<svg version="1.1" id="Layer_1" xmlns="http://www.w3.org/2000/svg" xmlns:xlink="http://www.w3.org/1999/xlink" x="0px" y="0px"
	 width="597.892px" height="560px" viewBox="0 0 597.892 560" enable-background="new 0 0 597.892 560" xml:space="preserve">
<g>
	<g>
		<g>
			<g>
				<path fill-rule="evenodd" clip-rule="evenodd" fill="none" d="M561.453,176.761c0.085,0.976,0.174,1.947,0.264,2.922
					c4.062-0.299,8.12-0.602,12.176-0.902c-0.09-0.674-0.183-1.347-0.273-2.02C569.563,176.761,565.505,176.761,561.453,176.761z"/>
			</g>
			<g>
				<path fill-rule="evenodd" clip-rule="evenodd" fill="none" d="M534.93,208.498c-3.729-1.746-5.127-2.926-6.523-2.93
					c-2.045,0-4.098,0.843-6.145,1.323c1.024,0.994,1.961,2.724,3.088,2.823C527.613,209.904,529.979,209.202,534.93,208.498z"/>
			</g>
			<g>
				<path fill-rule="evenodd" clip-rule="evenodd" fill="none" d="M546.832,274.961c-1.551,5.053-3.099,10.109-4.643,15.162
					c-1.574,2.674-4.518,5.368-4.465,8.019c0.182,8.43-4.396,9.041-11.871,6.394c-0.05-2.262,0.29-4.586-0.224-6.767
					c-1.84-7.763-4.552-16.822-14.881-17.275c-10.092-0.444-12.975,8.205-14.783,15.689c-1.582,3.074-2.39,8.165-4.887,8.868
					c-9.713,2.745-6.596-5.308-8.819-8.938c-4.729-5.371-9.453-10.744-14.18-16.113c-4.655,4.455-9.31,8.911-13.964,13.369
					c-0.511,3.503-1.021,7.002-1.533,10.505c-0.375,0.303-0.417,0.637-0.126,1.002c-9.188,3.361-7.397-2.717-7.964-6.769
					c-0.022-2.682-0.045-5.366-0.067-8.047c0.02-2.58,0.033-5.16,0.051-7.738c1.848-2.739,3.697-5.481,5.545-8.218
					c1.453,0.014,2.898,0.026,4.352,0.044c23.14-0.008,46.284-0.021,69.431-0.03c1.47-0.014,2.943-0.029,4.417-0.045
					c3.14,0.017,6.277,0.039,9.415,0.058c1.492,0.004,2.979,0.01,4.472,0.014C543.679,274.418,545.254,274.688,546.832,274.961z"/>
			</g>
			<g>
				<path fill-rule="evenodd" clip-rule="evenodd" fill="#893F38" d="M496.061,223.063c2.406-1.93,4.813-3.856,7.222-5.789
					c3.013-0.379,6.033-0.76,9.049-1.144c5.318,2.342,10.646,4.685,15.964,7.027c0.22,0.618,0.436,1.232,0.654,1.848
					c-0.067,8.458-0.142,16.912-0.214,25.365c0.065,0.92,0.133,1.836,0.194,2.752c-0.174,0.563-0.506,1.05-0.996,1.458
					c-1.386,0.004-2.768,0.008-4.152,0.014c-0.479-0.166-0.609-0.449-0.389-0.851c-5.632-4.384-11.51-6.438-18.133-1.392
					c-1.501,0.191-3.005,0.38-4.506,0.572c-1.594-7.978-3.185-15.956-4.774-23.93l-0.826,0.05
					C495.456,227.052,495.758,225.061,496.061,223.063z"/>
			</g>
			<g>
				<path fill-rule="evenodd" clip-rule="evenodd" fill="none" d="M389.877,151.934l0.125,0.135c-0.809-0.699-1.626-1.4-2.438-2.104
					l0.136,0.114c-1.58-1.353-3.169-2.703-4.75-4.054l0.125,0.105c-0.807-0.693-1.617-1.382-2.425-2.075l0.117,0.111
					c-0.019-0.822-0.036-1.646-0.059-2.47c-0.866-1.729-1.731-3.457-2.601-5.185l0.202-0.22"/>
				<path fill-rule="evenodd" clip-rule="evenodd" fill="none" d="M423.602,157.969c-3.928,11.254,8.257,5.938,12.432,8.852
					c-8.736-0.304-17.475-0.606-26.211-0.905l-0.207-0.044c-1.208-0.696-2.42-1.392-3.63-2.087l0.153,0.081"/>
			</g>
			<g>
				<path fill-rule="evenodd" clip-rule="evenodd" fill="#694239" d="M527.496,339.85c-1.759-1.652-2-4.52-0.938-8.428
					c-1.316,0.158-2.637,0.311-3.951,0.467c-0.439,2.656-0.876,5.304-1.312,7.961H527.496z"/>
				<path fill-rule="evenodd" clip-rule="evenodd" fill="#694239" d="M478.089,339.85h5.603c-1.74-1.49-2.177-4.062-0.989-7.983
					c-0.243-0.771-0.492-1.538-0.733-2.311c-1.115,1.153-2.232,2.307-3.346,3.46C479.567,336.134,479.463,338.436,478.089,339.85z"
					/>
			</g>
			<g>
				<path fill-rule="evenodd" clip-rule="evenodd" fill="#88423E" d="M409.822,165.915c8.736,0.299,17.475,0.602,26.211,0.905
					c12.326-0.021,24.653-0.039,36.977-0.059c0.193,0.32,0.193,0.642,0.009,0.963c0.126,1.092,0.253,2.185,0.384,3.275
					c-0.167,0.888-0.33,1.774-0.497,2.665c-15.253,0.642-30.512,1.283-45.767,1.92c-2.453,0.072-4.9,0.144-7.353,0.214
					C416.464,172.502,413.146,169.209,409.822,165.915z"/>
			</g>
			<g>
				<path fill-rule="evenodd" clip-rule="evenodd" fill="#8D6261" d="M357.851,35.693c-0.246-0.644-0.491-1.284-0.738-1.922
					c-2.14-5.273-4.282-10.544-6.421-15.813c-2.316-4.658-4.629-9.313-6.946-13.97c-1.947,0.453-3.896,0.907-5.846,1.358v2.596
					c1.146-0.112,2.292-0.227,3.438-0.34c3.644,11.216,7.286,22.432,10.929,33.646c2.271-0.103,4.548-0.206,6.825-0.313
					C358.677,39.191,358.266,37.44,357.851,35.693z"/>
			</g>
			<g>
				<path fill-rule="evenodd" clip-rule="evenodd" fill="none" d="M549.109,250.668c-6.792-0.099-13.58-0.197-20.374-0.297
					c0.072-8.453,0.146-16.907,0.214-25.365"/>
			</g>
			<g>
				<path fill-rule="evenodd" clip-rule="evenodd" fill="#956865" d="M537.462,317.198c-0.925,7.479-0.367,15.09-0.345,22.651h7.279
					c-0.6-3.415-1.2-6.83-1.799-10.245c-0.09-0.669-0.179-1.336-0.269-2.001c-0.619-0.341-0.894-0.823-0.826-1.449
					c-0.005,0.005,0.12-0.018,0.12-0.018c-0.624-0.825-1.256-1.649-1.888-2.473l2.477-3.98l2.338-11.163
					c1.53-0.193,3.062-0.389,4.59-0.581c-8.574-3.332-7.804-9.457-6.452-15.757c-0.166-0.687-0.332-1.375-0.498-2.06
					c-1.574,2.674-4.518,5.368-4.465,8.019c0.182,8.43-4.396,9.041-11.871,6.394c0.146,1.186,0.29,2.369,0.435,3.559
					C535.097,306.581,538.457,309.18,537.462,317.198z"/>
			</g>
			<g>
				<path fill-rule="evenodd" clip-rule="evenodd" fill="#967772" d="M558.35,188.971c0.849,0.179,1.692,0.354,2.537,0.533
					c-1.604,0.808-3.208,1.615-4.817,2.424c-1.556,0.018-3.115,0.035-4.669,0.052c-2.322,0.024-4.649,0.049-6.972,0.074
					c-0.702-0.362-1.434-0.416-2.194-0.155c-27.686-0.128-55.367-0.261-83.045-0.389c-0.037-0.605-0.076-1.211-0.126-1.813
					C492.156,189.455,525.255,189.213,558.35,188.971z"/>
			</g>
			<g>
				<path fill-rule="evenodd" clip-rule="evenodd" fill="#967772" d="M537.613,195.97c-26.189-0.215-52.372-0.431-78.559-0.646
					c-0.09-0.556-0.076-1.114,0.036-1.671c27.58,0.061,55.159,0.119,82.746,0.183l0.063-0.072
					C540.471,194.498,539.042,195.236,537.613,195.97z"/>
			</g>
			<g>
				<path fill-rule="evenodd" clip-rule="evenodd" fill="none" d="M357.112,33.771c-2.14-5.273-4.282-10.544-6.421-15.813
					c4.947,3.06,9.896,6.115,15.527,9.597C363.132,29.665,360.119,31.716,357.112,33.771z"/>
			</g>
			<g>
				<path fill-rule="evenodd" clip-rule="evenodd" fill="#7B4F49" d="M542.383,264.483c-0.515,2.011-1.033,4.017-1.548,6.026
					c0.431,0.615,0.86,1.233,1.289,1.854c0,0,0.081,0.038,0.076,0.038c-0.069,0.581-0.104,1.162-0.093,1.743
					c-1.492-0.004-2.979-0.01-4.472-0.014c-0.79-0.602-1.58-1.198-2.363-1.797c0.434-1.316,0.865-2.632,1.3-3.948
					c-0.295-1.304-0.589-2.605-0.885-3.905c0.757-2.597,1.515-5.192,2.273-7.791c1.189-0.045,2.377-0.09,3.569-0.135
					C541.813,259.197,542.097,261.841,542.383,264.483z"/>
			</g>
			<g>
				<path fill-rule="evenodd" clip-rule="evenodd" fill="none" d="M552.894,339.85c-3.434-3.415-6.864-6.83-10.296-10.245
					c0.599,3.415,1.199,6.83,1.799,10.245H552.894z"/>
			</g>
			<g>
				<path fill-rule="evenodd" clip-rule="evenodd" fill="#967772" d="M541.53,256.555c-1.192,0.045-2.38,0.09-3.569,0.135
					c-3.009-1.188-6.021-2.378-9.031-3.566c-0.062-0.916-0.129-1.832-0.194-2.752c6.794,0.1,13.582,0.198,20.374,0.297
					c0.084,0.687,0.17,1.377,0.254,2.071c-2.267,1.316-4.533,2.639-6.802,3.959L541.53,256.555z"/>
			</g>
			<g>
				<path fill-rule="evenodd" clip-rule="evenodd" fill="none" d="M553.986,199.456"/>
			</g>
			<g>
				<path fill-rule="evenodd" clip-rule="evenodd" fill="none" d="M542.562,256.698c2.269-1.32,4.535-2.643,6.802-3.959
					C547.097,254.056,544.83,255.378,542.562,256.698z"/>
			</g>
			<g>
				<path fill-rule="evenodd" clip-rule="evenodd" fill="none" d="M551.4,191.979c1.554-0.017,3.113-0.034,4.669-0.052
					c-0.771,0.929-1.542,1.853-2.31,2.781C552.972,193.799,552.183,192.887,551.4,191.979z"/>
			</g>
			<g>
				<path fill-rule="evenodd" clip-rule="evenodd" fill="#967772" d="M542.107,274.145c-0.011-0.581,0.023-1.162,0.093-1.743
					c2.399,0.667,4.788,1.333,7.186,1.999c-0.852,0.186-1.702,0.372-2.554,0.561C545.254,274.688,543.679,274.418,542.107,274.145z"
					/>
			</g>
			<g>
				<path fill-rule="evenodd" clip-rule="evenodd" fill="none" d="M542.234,191.898c0.761-0.261,1.492-0.207,2.194,0.155
					c-0.843,0.569-1.688,1.139-2.528,1.709l-0.063,0.072C542.052,193.197,542.183,192.556,542.234,191.898z"/>
			</g>
			<g>
				<path fill-rule="evenodd" clip-rule="evenodd" fill="#893F38" d="M349.654,339.85c1.093-6.552,2.184-13.105,3.156-19.672
					c0.699-4.729,0.979-9.504,1.448-14.26c-0.451-2.642-0.897-5.284-1.349-7.925c-0.375-0.422-0.789-0.825-1.081-1.288
					c-0.046-0.068,0.464-0.401,0.72-0.609c-0.585-2.203-0.436-4.876-1.89-6.52c-3.997-4.532-8.415-8.79-12.76-13.099v63.372H349.654
					z"/>
			</g>
			<g>
				<path fill-rule="evenodd" clip-rule="evenodd" fill="#883B35" d="M403.228,339.85c1.164-3.187,0.995-7.126,0.562-11.34
					c-0.761-7.439-0.076-14.988-0.033-22.488c-3.369-5.466-6.732-10.931-10.102-16.393c-3.745,5.578-9.691,10.863-10.768,16.791
					c-1.997,10.982-1.838,22.248-2.277,33.43H403.228z"/>
			</g>
			<g>
				<path fill-rule="evenodd" clip-rule="evenodd" fill="#7B4F49" d="M412.879,251.449c0.856,0.118,1.709,0.232,2.561,0.35
					c1.512,0.297,3.024,0.593,4.539,0.889c0.156,1.318,0.322,2.636,0.482,3.952c-0.08,0.643-0.326,1.234-0.729,1.777
					c-1.542,1.419-3.09,2.831-4.632,4.245c1.722,0.587,3.444,1.175,5.167,1.759c0.339,0.482,0.735,0.944,0.964,1.46
					c0.056,0.124-0.463,0.429-0.716,0.649c-0.027,1.27-0.059,2.544-0.086,3.815c0.022,1.354,0.05,2.709,0.074,4.059
					c0.007,1.281,0.015,2.558,0.029,3.832c-0.004,2.668-0.004,5.335-0.009,7.999c-0.014,7.19-0.028,14.379-0.036,21.571
					c0.263,0.497,0.596,0.982,0.748,1.508c0.042,0.143-0.463,0.403-0.721,0.613c-0.067,8.816-0.382,17.64-0.104,26.448
					c0.045,1.382-0.061,2.521-0.346,3.474h4.924c-0.161-0.396-0.289-0.795-0.287-1.189c0.1-42.458,0.286-84.909,0.461-127.362
					c-0.265-1.31-0.531-2.622-0.798-3.933c-0.749-0.031-1.484-0.146-2.195-0.344l0.054,0.563c-0.518,0.6-1.033,1.198-1.551,1.797
					c-0.111,8.769-0.199,17.531-0.343,26.3c-0.102,6.017,2.412,13.355-9.237,13.708c0.045,0.286-0.024,0.663,0.167,0.845
					C411.739,250.686,412.333,251.052,412.879,251.449z"/>
				<path fill-rule="evenodd" clip-rule="evenodd" fill="#7B4F49" d="M403.228,339.85h2.897c-0.288-1.068-0.348-2.343-0.398-3.783
					c-0.348-10.024-1.278-20.035-1.971-30.05c-0.043,7.505-0.728,15.054,0.033,22.493
					C404.223,332.724,404.392,336.663,403.228,339.85z"/>
			</g>
			<g>
				<path fill-rule="evenodd" clip-rule="evenodd" fill="#694239" d="M431.02,246.684c0.155,30.674,0.348,61.347,0.365,92.021
					c0,0.381-0.077,0.763-0.199,1.145h4.979c-0.31-0.107-0.617-0.211-0.924-0.319c0.009-1.383,0.012-2.768,0.022-4.15
					c0.009-7.819,0.018-15.635,0.025-23.454l-0.066-8.106v-3.717c0.014-2.046,0.022-4.093,0.03-6.143
					c0.011-3.877,0.02-7.754,0.028-11.631c-0.015-2.042-0.028-4.084-0.04-6.125c-0.01-1.89-0.019-3.778-0.027-5.665
					c0.027-0.752,0.05-1.506,0.072-2.257c0.003-3.201,0.003-6.398,0.009-9.6c-0.022-1.383-0.045-2.768-0.067-4.146
					c-0.005-1.898-0.009-3.796-0.02-5.692c0-0.752-0.003-1.501-0.008-2.255c0.014-11.088,0.022-22.179,0.031-33.267
					c-0.586-1.977-1.173-3.948-1.76-5.926c-0.003,0.002-0.955-0.054-0.955-0.054l-0.948,0.021c-0.196,2.603-0.391,5.202-0.584,7.808
					c0.009,7.901,0.015,15.799,0.022,23.7C431.01,241.474,431.015,244.079,431.02,246.684z"/>
			</g>
			<g>
				<path fill-rule="evenodd" clip-rule="evenodd" fill="#7B4F49" d="M355.881,339.85c-0.37-0.359-0.612-0.724-0.635-1.101
					c-0.519-8.364-0.205-16.768-0.299-25.158c-0.026-2.558-0.446-5.115-0.688-7.676c-0.469,4.759-0.749,9.533-1.448,14.263
					c-0.973,6.566-2.063,13.12-3.156,19.672H355.881z"/>
			</g>
			<g>
				<path fill-rule="evenodd" clip-rule="evenodd" fill="#8C5C58" d="M459.131,339.85c0.017-2.671,0.035-5.345,0.055-8.016
					c-0.005-1.929-0.005-3.858-0.005-5.788c-1.663-1.458-3.325-2.915-4.983-4.378c2.05-1.12,3.947-2.79,6.183-3.24
					c3.296-0.662,6.833-0.457,10.272-0.624c-5.226-3.957-15.97,1.14-18.021-8.021c-0.213,10.022-0.42,20.047-0.635,30.067H459.131z"
					/>
			</g>
			<g>
				<path fill-rule="evenodd" clip-rule="evenodd" fill="#895C54" d="M445.31,339.85c-0.636-0.826-0.961-2.043-0.861-3.851
					c0.268-4.685-0.416-9.403-0.683-14.107c-0.997,1.876-1.988,3.754-2.986,5.632c-0.027,4.105-0.054,8.216-0.083,12.326H445.31z"/>
			</g>
			<g>
				<path fill-rule="evenodd" clip-rule="evenodd" fill="#8A5451" d="M459.091,193.652c-0.112,0.557-0.126,1.115-0.036,1.671
					c-1.47,1.93-2.937,3.854-4.404,5.787c-0.061,0.738-0.126,1.48-0.188,2.224c-0.701,0.018-1.398,0.018-2.092,0
					c0.131-2.549,0.26-5.089,0.397-7.638c0.174-1.359,0.348-2.724,0.521-4.084c-1.289,0.364-2.574,0.728-3.862,1.089
					c-4.357-0.683-9.747-0.227-12.854-2.291c-6.253-4.146-11.267-9.66-16.788-14.611c2.452-0.07,4.899-0.142,7.353-0.214
					c15.358-0.049,30.717-0.104,46.067-0.156c5.476,0.277,10.947,0.552,16.415,0.832c-0.153,1.043-0.301,2.084-0.451,3.125
					c-18.117,0-36.236,0-54.35,0c-0.156,0.987-0.316,1.975-0.474,2.962c7.835,1.547,15.672,3.094,23.509,4.64
					c0.423,0.82,0.847,1.642,1.271,2.464l-0.063,0.246c0.05,0.602,0.089,1.207,0.122,1.813
					C459.152,192.224,459.122,192.941,459.091,193.652z"/>
			</g>
			<g>
				<path fill-rule="evenodd" clip-rule="evenodd" fill="#B69292" d="M458.994,187.525c1.945-1.288,3.873-3.673,5.833-3.69
					c28.211-0.245,56.435-0.249,84.646-0.016c1.984,0.014,3.937,2.324,5.911,3.571c-4.158-0.518-8.327-1.534-12.476-1.476
					C514.935,186.322,486.962,186.96,458.994,187.525z"/>
			</g>
			<g>
				<path fill-rule="evenodd" clip-rule="evenodd" fill="#694239" d="M473.402,171c-0.131-1.091-0.258-2.184-0.384-3.275
					c41.304,0,82.606,0,123.907,0c0.012,1.092,0.015,2.185,0.021,3.275C555.769,171,514.585,171,473.402,171z"/>
			</g>
			<g>
				<path fill-rule="evenodd" clip-rule="evenodd" fill="#7B4F49" d="M561.453,176.761c4.052,0,8.11,0,12.166,0
					c0.091,0.673,0.184,1.346,0.273,2.02c-4.056,0.301-8.114,0.604-12.176,0.902C561.627,178.708,561.538,177.736,561.453,176.761z"
					/>
			</g>
			<g>
				<path fill-rule="evenodd" clip-rule="evenodd" fill="#B69292" d="M459.082,187.458c0.018,0.664,0.031,1.328,0.045,1.993
					c-0.425-0.822-0.849-1.644-1.271-2.464C458.432,186.829,458.838,186.987,459.082,187.458z"/>
			</g>
			<g>
				<path fill-rule="evenodd" clip-rule="evenodd" fill="#7B4F49" d="M489.17,179.386c0.15-1.041,0.298-2.082,0.451-3.125
					c0.813,0.474,1.62,0.95,2.433,1.429C491.093,178.256,490.133,178.82,489.17,179.386z"/>
			</g>
			<g>
				<path fill-rule="evenodd" clip-rule="evenodd" fill="#893F38" d="M454.373,274.148c-1.453-0.018-2.898-0.03-4.352-0.044
					c-0.23-0.696-0.459-1.392-0.683-2.083c0.696-6.279,1.394-12.559,2.095-18.841c0.005-1.055,0.008-2.108,0.019-3.163
					c-0.047-6.063-0.091-12.125-0.136-18.191c0.229-1.596,0.461-3.189,0.689-4.785c0.009-1.321,0.023-2.641,0.031-3.964
					c0.799-0.92,1.591-1.84,2.384-2.761c0.551-0.426,1.099-0.856,1.646-1.282c0,0,0.69-0.354,0.688-0.354
					c0.822-0.465,1.645-0.932,2.471-1.396c0.71-0.039,1.395-0.169,2.058-0.399c3.893,0.179,7.79,0.363,11.691,0.545
					c1.666,0.455,3.336,0.917,5.006,1.375l-0.155-0.063c1.537,1.408,3.068,2.817,4.603,4.225l-0.059-0.078
					c0.623,1.377,1.25,2.755,1.873,4.133c-0.011,1.31-0.021,2.615-0.029,3.926c-0.649,4.768-0.875,9.616-2.105,14.273
					c-0.707,2.674-3.046,5.034-4.647,7.535c-2.289-0.051-4.675-0.49-6.843-0.082c-5.064,0.956-10.016,2.32-15.016,3.518
					c4.996,1.544,9.987,3.087,14.984,4.63c0.603,1.732,1.206,3.465,1.813,5.195l-0.731,0.441c-2.823-0.574-5.646-1.151-8.471-1.726
					c-6.475-0.707-10.5,0.657-8.382,7.227C454.666,272.691,454.521,273.42,454.373,274.148z"/>
			</g>
			<g>
				<path fill-rule="evenodd" clip-rule="evenodd" fill="#864F49" d="M523.781,254.595c1.385-0.006,2.767-0.01,4.152-0.014
					c0.22,5.835,0.445,11.671,0.668,17.504c-0.126,0.664-0.252,1.323-0.381,1.988c-1.474,0.016-2.947,0.031-4.417,0.045
					c-0.044-1.262-0.086-2.522-0.125-3.788c-0.731-2.028-1.462-4.061-2.193-6.088c-5.533,3.594-11.165,3.198-17.22,0.861
					c-0.365-0.14-3.288,4.55-5.018,6.994c-1.998,0.055-4,0.113-5.997,0.172c0.224-6.642,0.455-13.28,0.684-19.919
					c0.138-0.388,0.174-0.783,0.11-1.185c0.425-0.87,0.854-1.745,1.282-2.616c0.098-1.9,0.201-3.801,0.3-5.698
					c-0.009-2.67-0.022-5.336-0.037-8.005c0.131-1.949,0.257-3.904,0.39-5.852c1.59,7.974,3.181,15.952,4.774,23.93
					c-1.544,3.569-2.517,8.236,3.831,7.094C511.018,258.861,521.521,266.467,523.781,254.595z"/>
			</g>
			<g>
				<path fill-rule="evenodd" clip-rule="evenodd" fill="#8C5C58" d="M452.006,227.041c-0.229,1.596-0.461,3.189-0.685,4.79
					c-2.353,1.086-4.702,2.177-7.057,3.263c-1.153-0.036-2.309-0.067-3.463-0.102c-0.35-9.037-4.029-18.72,6.831-25.569
					c1.576-2.03,3.156-4.062,4.738-6.089c0.693,0.018,1.391,0.018,2.092,0c0.653,0.69,1.308,1.386,1.965,2.077l0.711-0.242
					c2.988,0.547,5.97,1.09,8.961,1.638l-0.104,0.705c0.029,1.094,0.067,2.193,0.104,3.286c-6.054,1.469-12.107,2.935-18.155,4.403
					c-0.905,1.329-1.814,2.661-2.72,3.99c0.632,2.01,1.262,4.018,1.896,6.027C448.746,225.827,450.375,226.434,452.006,227.041z"/>
			</g>
			<g>
				<path fill-rule="evenodd" clip-rule="evenodd" fill="#7B4F49" d="M466.1,210.798c-0.036-1.093-0.074-2.192-0.104-3.286
					c1.542-0.212,3.083-0.422,4.625-0.634c0.785,0.01,1.563,0.019,2.348,0.024c1.293,0.6,2.584,1.198,3.878,1.8
					c-1.3,0.785-2.503,2.047-3.923,2.253C470.725,211.279,468.378,210.885,466.1,210.798z"/>
			</g>
			<g>
				<path fill-rule="evenodd" clip-rule="evenodd" fill="#D2A9A9" d="M472.974,217.43c-3.901-0.182-7.799-0.366-11.691-0.545
					c5.313,0.207,10.633,0.415,15.948,0.623C475.811,217.481,474.394,217.455,472.974,217.43z"/>
			</g>
			<g>
				<path fill-rule="evenodd" clip-rule="evenodd" fill="#7B4F49" d="M536.773,209.127c1.01-0.736,2.023-1.477,3.034-2.213"/>
			</g>
			<g>
				<path fill-rule="evenodd" clip-rule="evenodd" fill="#D2A9A9" d="M512.331,216.131c-3.016,0.384-6.036,0.765-9.049,1.144
					C506.298,216.896,509.315,216.515,512.331,216.131z"/>
			</g>
			<g>
				<path fill-rule="evenodd" clip-rule="evenodd" fill="#8A5451" d="M482.518,221.07c-0.027,0.633-0.059,1.264-0.091,1.896
					c-1.534-1.407-3.065-2.816-4.603-4.225C479.389,219.519,480.951,220.293,482.518,221.07z"/>
			</g>
			<g>
				<path fill-rule="evenodd" clip-rule="evenodd" fill="#8A5451" d="M472.974,217.43c1.42,0.025,2.837,0.052,4.257,0.078
					c0.496,0.328,0.749,0.764,0.749,1.297C476.31,218.347,474.64,217.885,472.974,217.43z"/>
			</g>
			<g>
				<path fill-rule="evenodd" clip-rule="evenodd" fill="#956865" d="M456.428,205.411c-0.657-0.691-1.312-1.387-1.965-2.077
					c0.062-0.743,0.127-1.485,0.188-2.224C455.242,202.544,455.833,203.975,456.428,205.411z"/>
			</g>
			<g>
				<path fill-rule="evenodd" clip-rule="evenodd" fill="#893F38" d="M525.854,304.535c0.146,1.186,0.29,2.369,0.435,3.559
					c-0.296,0.564-0.546,1.145-0.735,1.74c-0.707,2.891-1.415,5.784-2.124,8.67c-2.957-0.251-5.919-0.505-8.878-0.758
					c-6.102-0.696-12.203-1.392-18.305-2.087c-0.119-1.972-0.236-3.944-0.354-5.914c0.029-4.519,0.052-9.039,0.074-13.56
					c1.809-7.487,4.691-16.137,14.783-15.692c10.329,0.453,13.041,9.513,14.881,17.275
					C526.144,299.949,525.804,302.273,525.854,304.535z"/>
			</g>
			<g>
				<path fill-rule="evenodd" clip-rule="evenodd" fill="#893F38" d="M470.652,317.804c-5.226-3.957-15.97,1.14-18.021-8.021
					c-0.232-0.625-0.465-1.253-0.697-1.879c0.174-1.01,0.352-2.018,0.523-3.027c-0.291-0.365-0.249-0.699,0.126-1.002
					c0.513-3.498,1.022-7.002,1.533-10.505c4.654-4.458,9.309-8.914,13.964-13.369c4.727,5.369,9.45,10.742,14.18,16.111
					c0.25,4.134,0.496,8.271,0.745,12.409c-0.155,3.109-0.308,6.219-0.46,9.328C478.58,317.831,474.614,317.817,470.652,317.804z"/>
			</g>
			<g>
				<path fill-rule="evenodd" clip-rule="evenodd" fill="#895C54" d="M452.457,304.876c-0.172,1.01-0.35,2.018-0.523,3.028
					c-10.82-1.511-5.653,6.567-8.218,10.008c-0.986-0.055-1.975-0.108-2.961-0.166c-0.034-22.351-0.059-44.706-0.093-67.056
					c0.844,1.405,1.691,2.81,2.533,4.211c0.317,0.617,0.632,1.233,0.949,1.852c0.005,3.858,0.014,7.718,0.019,11.578
					c0.401,1.272,0.804,2.542,1.21,3.813l0.158,0.099c-0.352,3.358-0.702,6.718-1.055,10.08c-0.018,2.578-0.031,5.158-0.051,7.738
					c0.022,2.681,0.045,5.365,0.067,8.047C445.06,302.159,443.27,308.237,452.457,304.876z"/>
			</g>
			<g>
				<path fill-rule="evenodd" clip-rule="evenodd" fill="#956865" d="M493.251,272.27c1.997-0.059,3.999-0.117,5.997-0.172
					c8.145-0.588,16.287-1.18,24.431-1.768c0.039,1.266,0.081,2.526,0.125,3.788c-23.146,0.01-46.291,0.022-69.431,0.03
					c0.148-0.729,0.293-1.457,0.44-2.189c8.246-0.655,16.489-1.311,24.731-1.965c1.715,0.768,3.422,1.538,5.137,2.308
					C487.539,272.292,490.393,272.279,493.251,272.27z"/>
			</g>
			<g>
				<path fill-rule="evenodd" clip-rule="evenodd" fill="#967772" d="M483.005,308.521c-0.249-4.138-0.495-8.275-0.745-12.409
					c2.224,3.632-0.894,11.685,8.819,8.939c2.497-0.703,3.305-5.794,4.887-8.868c-0.022,4.523-0.045,9.044-0.074,13.563
					c-0.526-0.108-1.062-0.193-1.603-0.242l-0.348,0.134c-3.12-0.327-6.246-0.657-9.368-0.986
					C484.032,308.756,483.51,308.713,483.005,308.521z"/>
			</g>
			<g>
				<path fill-rule="evenodd" clip-rule="evenodd" fill="#AA817E" d="M444.477,282.322c0.353-3.362,0.703-6.722,1.055-10.085
					c1.267-0.069,2.535-0.144,3.808-0.216c0.224,0.691,0.452,1.387,0.683,2.083C448.174,276.841,446.324,279.583,444.477,282.322z"
					/>
			</g>
			<g>
				<path fill-rule="evenodd" clip-rule="evenodd" fill="#967772" d="M528.221,274.073c0.129-0.665,0.255-1.324,0.381-1.988
					c2.222,0.083,4.447,0.165,6.671,0.249c0.783,0.599,1.573,1.195,2.363,1.797C534.498,274.112,531.36,274.09,528.221,274.073z"/>
			</g>
			<g>
				<path fill-rule="evenodd" clip-rule="evenodd" fill="#864F49" d="M523.393,253.744c-6.043-0.463-12.086-0.927-18.133-1.392
					C511.883,247.307,517.761,249.36,523.393,253.744z"/>
			</g>
			<g>
				<path fill-rule="evenodd" clip-rule="evenodd" fill="#884843" d="M378.31,57.406c-0.834,0.733-1.667,1.465-2.497,2.196
					c-8.741,0.7-18.318,3.505-25.909,1.309c-4.481-1.3-5.824-10.516-8.575-16.175c6.15-0.991,12.304-1.987,18.453-2.983
					c0.004-0.417-0.225-0.687-0.689-0.816c-2.277,0.107-4.555,0.211-6.825,0.313c-4.79,0.027-9.58,0.055-14.368,0.081v28.547
					c4.495-0.422,8.992-0.839,13.492-1.258c-0.113,1.097-0.226,2.193-0.338,3.291c3.679,0.619,7.604-7.557,11.114,0.225
					c0.081,0.175,0.752,0.099,1.017,0.276c3.486,2.344-0.107-9.612,5.885-2.123c-3.031,1.725-6.056,3.452-9.084,5.181
					c2.146,1.287,4.288,2.575,6.428,3.858c0.072,0.644,0.325,1.233,0.749,1.772c1.082-0.597,2.168-1.194,3.249-1.79
					c2.597-2.931,4.572-6.621,7.922-8.636C386.313,65.875,387.148,61.828,378.31,57.406z"/>
			</g>
			<g>
				<path fill-rule="evenodd" clip-rule="evenodd" fill="#895C54" d="M367.161,81.101c1.082-0.597,2.168-1.194,3.249-1.79
					c0.399,15.599,0.664,31.203,1.29,46.794c0.137,3.38,1.555,6.724,2.385,10.086c-1.01,5.327-2.02,10.655-3.033,15.981
					c-1.153,1.248-2.313,2.494-3.474,3.741C367.439,130.975,367.3,106.039,367.161,81.101z"/>
			</g>
			<g>
				<path fill-rule="evenodd" clip-rule="evenodd" fill="#8D6261" d="M378.31,57.406c-0.834,0.733-1.667,1.465-2.497,2.196
					c-10.37-6.862-17.744-18.796-34.484-14.866c6.15-0.991,12.304-1.987,18.453-2.983c4.63,1.504,9.322,2.888,13.837,4.613
					c1.017,0.388,1.627,1.909,2.047,3.015C376.665,52.021,377.442,54.725,378.31,57.406z"/>
			</g>
			<g>
				<path fill-rule="evenodd" clip-rule="evenodd" fill="#8C5C58" d="M406.139,163.865c-1.582-0.021-3.164-0.041-4.752-0.059
					l0.102,0.172c-3.408-5.7-7.386-8.449-13.18-1.868c-1.063-1.171-2.131-2.338-3.196-3.507c1.585-2.223,3.179-4.444,4.765-6.67"/>
			</g>
			<g>
				<path fill-rule="evenodd" clip-rule="evenodd" fill="#8C5C58" d="M409.615,165.871c-1.208-0.696-2.42-1.392-3.63-2.087
					C407.195,164.479,408.407,165.175,409.615,165.871z"/>
			</g>
			<g>
				<path fill-rule="evenodd" clip-rule="evenodd" fill="#8C5C58" d="M380.767,144.166c-0.849-0.393-1.694-0.783-2.537-1.175
					c0.824-0.431,1.652-0.864,2.479-1.295C380.73,142.52,380.748,143.344,380.767,144.166z"/>
			</g>
			<g>
				<path fill-rule="evenodd" clip-rule="evenodd" fill="#864F49" d="M499.136,339.85l0.571-2.545
					c2.966-1.952,5.634-4.819,8.973-5.604c3.754-0.88,8.115,0.121,12.212,0.306c0.568-0.144,1.145-0.18,1.722-0.117
					c1.308-0.156,2.628-0.309,3.944-0.467c0.472-1.902,0.952-3.805,1.426-5.707c-1.74-0.218-3.482-0.433-5.226-0.646
					c-6.32,0.214-12.651,0.301-18.957,0.669c-6.618,0.388-8.854-2.123-7.362-7.451l-0.378-0.536
					c-0.471,0.318-1.002,0.453-1.596,0.403c-0.354,7.229-0.704,14.463-1.063,21.696H499.136z"/>
			</g>
			<g>
				<path fill-rule="evenodd" clip-rule="evenodd" fill="#884843" d="M478.623,333.016c-6.484-0.396-12.961-0.79-19.438-1.182
					c-0.005-1.929-0.005-3.858-0.005-5.788c6.725-0.232,13.449-0.473,20.176-0.708c0.87,1.406,1.741,2.813,2.612,4.218
					C480.854,330.709,479.736,331.862,478.623,333.016z"/>
			</g>
			<g>
				<path fill-rule="evenodd" clip-rule="evenodd" fill="#956865" d="M481.969,329.556c-0.871-1.404-1.742-2.812-2.612-4.218
					c1.624-1.115,3.242-2.235,4.864-3.348c-0.505,3.293-1.015,6.587-1.519,9.881C482.459,331.095,482.21,330.328,481.969,329.556z"
					/>
			</g>
			<g>
				<path fill-rule="evenodd" clip-rule="evenodd" fill="#967772" d="M521.298,339.85c0.436-2.657,0.869-5.305,1.315-7.961
					c-0.577-0.063-1.153-0.026-1.722,0.117c0.054,2.611,0.106,5.228,0.162,7.844H521.298z"/>
			</g>
			<g>
				<path fill-rule="evenodd" clip-rule="evenodd" fill="#967772" d="M542.124,272.363c-0.429-0.62-0.858-1.238-1.289-1.854
					C541.266,271.129,541.695,271.743,542.124,272.363z"/>
			</g>
			<g>
				<path fill="none" d="M352.549,296.096c0.121,0.633,0.239,1.266,0.361,1.897c0.451,2.641,0.897,5.283,1.349,7.922
					c0.242,2.561,0.662,5.118,0.688,7.676c0.094,8.391-0.22,16.794,0.299,25.158c0.022,0.377,0.265,0.741,0.635,1.101h4.107
					c-0.104-0.584-0.208-1.163-0.312-1.746l3.49-4.559c3.659-0.035,7.325-0.072,10.984-0.108c1.013,2.141,2.022,4.276,3.034,6.413
					h3.424c0.439-11.182,0.28-22.447,2.277-33.43c1.076-5.928,7.022-11.213,10.768-16.791c3.369,5.462,6.732,10.927,10.102,16.388
					c0.692,10.015,1.623,20.025,1.971,30.05c0.051,1.44,0.11,2.715,0.398,3.783h13.941c0.285-0.952,0.391-2.092,0.346-3.474
					c-0.278-8.809,0.036-17.632,0.104-26.448l-0.027-2.121c0.008-7.192,0.022-14.381,0.036-21.571
					c0.005-2.664,0.005-5.331,0.009-7.999c-0.015-1.274-0.022-2.551-0.029-3.832c-0.024-1.353-0.052-2.705-0.074-4.059
					c0.027-1.271,0.059-2.546,0.086-3.815c-0.081-0.702-0.162-1.407-0.248-2.109c-1.723-0.584-3.445-1.172-5.167-1.759
					c-1.409-0.574-2.821-1.153-4.237-1.728c2.957-0.839,5.912-1.679,8.869-2.518c0.402-0.543,0.648-1.135,0.729-1.777l-0.486-3.952
					c-1.511-0.296-3.023-0.592-4.535-0.889c-0.856-0.117-1.709-0.231-2.561-0.35c-0.546-0.397-1.14-0.764-1.618-1.215
					c-0.191-0.182-0.122-0.559-0.167-0.845c11.649-0.353,9.136-7.691,9.237-13.708c0.144-8.769,0.231-17.531,0.343-26.3
					c0.518-0.599,1.038-1.197,1.551-1.797l-0.054-0.563c0.765-1.221,1.527-2.44,2.291-3.656l0.783-0.682
					c-16.677-13.255-33.375-26.493-50-39.797c-2.72-2.172-5.117-4.638-7.667-6.971c-0.139-24.941-0.278-49.877-0.417-74.815
					c-0.424-0.539-0.677-1.129-0.749-1.776c-9.504-0.086-19.01-0.176-28.513-0.261v10.81c0.226,0.027,0.43,0.047,0.67,0.071
					c1.479,0.152,3.224-1.534,4.846-2.367c8.207-4.478,8.743,4.205,13.458,5.724c-1.847,1.84-3.695,3.685-5.544,5.527
					c1.121,1.455,2.242,2.908,3.366,4.362c2.136-0.771,4.271-1.548,6.401-2.319c-0.232,1.97-0.468,3.939-0.702,5.906
					c-1.889-1.116-3.773-2.234-5.658-3.354c-6.659,7.372-11.934,10.579-16.837,9.755v77.479c2.614-0.322,5.182-0.612,6.212,0.328
					c5.239,4.796,9.25,10.571,13.731,15.972c0.896,2.641,1.79,5.276,2.684,7.918c0.293,10.613,0.589,21.232,0.883,31.847
					c0.537,0.448,0.849,0.989,0.938,1.627c3.823,0.765,7.646,1.53,11.471,2.292c0.719-6.533,1.336-13.084,2.203-19.604
					c0.533-4.004,1.438-7.973,2.174-11.953c0.338-0.552,0.814-0.987,1.434-1.31c3.787-5.336,7.578-10.671,11.37-16.006
					c4.208,5.494,10.981,10.643,12.063,16.553c1.934,10.535,0.429,21.528,0.36,32.329c0.059,3.411,0.122,6.821,0.184,10.23
					c-3.034,0.045-6.065,0.091-9.102,0.136c-1.566,0.013-3.129,0.022-4.688,0.03c-3.046-0.033-6.097-0.069-9.143-0.104
					c-0.77-0.155-1.541-0.313-2.313-0.465c-1.519-1.287-3.038-2.576-4.556-3.863c-2.264,3.13-4.528,6.259-6.794,9.388
					c-1.95-2.519-3.9-5.034-5.854-7.553l-0.201-0.888c-0.456-0.973-0.907-1.943-1.362-2.917c-1.108,1.306-2.215,2.606-3.323,3.908
					c0.225,0.709,0.451,1.414,0.676,2.122c-0.534,1.598-1.075,3.199-1.613,4.799c-0.974-0.832-1.966-1.646-2.913-2.501
					c-2.254-2.024-4.483-4.067-6.726-6.107c-2.49,0.427-5.133,0.341-7.793,0.18v7.184h2.038c0.112,1.117,0.224,2.234,0.338,3.349
					c-0.792,0.094-1.584,0.208-2.375,0.326v8.575c4.346,4.309,8.763,8.566,12.76,13.099
					C352.113,291.22,351.964,293.893,352.549,296.096z"/>
			</g>
			<g>
				<path fill-rule="evenodd" clip-rule="evenodd" fill="#967772" d="M536.572,268.386c-0.295-1.304-0.591-2.605-0.885-3.906
					C535.983,265.78,536.277,267.082,536.572,268.386z"/>
			</g>
			<g>
				<path fill-rule="evenodd" clip-rule="evenodd" fill="#7B4F49" d="M352.549,296.096c0.121,0.633,0.239,1.266,0.361,1.897
					c-0.375-0.422-0.789-0.825-1.081-1.288C351.783,296.637,352.293,296.304,352.549,296.096z"/>
			</g>
			<g>
				<path fill-rule="evenodd" clip-rule="evenodd" fill="none" d="M431.02,246.684c-1.402-1.649-3.872-3.229-4.025-4.959
					c-0.91-10.123-1.28-20.281-1.83-30.427c-0.265-1.31-0.531-2.622-0.793-3.933c0.029-1.332,0.062-2.668,0.091-4l0.783-0.682
					c2.105,1.557,4.216,3.117,6.322,4.68c-0.196,2.603-0.391,5.202-0.584,7.808c0.009,7.901,0.015,15.799,0.022,23.7
					C431.01,241.474,431.015,244.079,431.02,246.684z"/>
			</g>
			<g>
				<path fill-rule="evenodd" clip-rule="evenodd" fill="#AA817E" d="M415.101,262.662c-1.409-0.574-2.821-1.153-4.237-1.728
					c2.957-0.839,5.912-1.679,8.869-2.518C418.19,259.836,416.643,261.248,415.101,262.662z"/>
			</g>
			<g>
				<path fill-rule="evenodd" clip-rule="evenodd" fill="#967772" d="M420.524,286.235c0.005-2.664,0.005-5.331,0.009-7.999
					C420.529,280.904,420.529,283.571,420.524,286.235z"/>
			</g>
			<g>
				<path fill-rule="evenodd" clip-rule="evenodd" fill="#967772" d="M420.461,256.64c-0.16-1.316-0.326-2.634-0.486-3.952
					C420.135,254.006,420.301,255.323,420.461,256.64z"/>
			</g>
			<g>
				<path fill-rule="evenodd" clip-rule="evenodd" fill="#967772" d="M420.504,274.404c-0.024-1.353-0.052-2.705-0.074-4.059
					C420.452,271.699,420.479,273.055,420.504,274.404z"/>
			</g>
			<g>
				<path fill-rule="evenodd" clip-rule="evenodd" fill="#967772" d="M420.674,209.382c0.518-0.599,1.038-1.197,1.551-1.797
					C421.707,208.185,421.191,208.783,420.674,209.382z"/>
			</g>
			<g>
				<path fill-rule="evenodd" clip-rule="evenodd" fill="#AA817E" d="M415.439,251.799c-0.856-0.117-1.709-0.231-2.561-0.35
					C413.735,251.567,414.588,251.682,415.439,251.799z"/>
			</g>
			<g>
				<path fill-rule="evenodd" clip-rule="evenodd" fill="#967772" d="M420.516,309.928c-0.009-0.708-0.02-1.414-0.027-2.121
					c0.263,0.497,0.596,0.982,0.748,1.508C421.278,309.457,420.773,309.718,420.516,309.928z"/>
			</g>
			<g>
				<path fill-rule="evenodd" clip-rule="evenodd" fill="#967772" d="M420.516,266.53c-0.081-0.702-0.162-1.407-0.248-2.109
					c0.339,0.482,0.735,0.944,0.964,1.46C421.287,266.005,420.769,266.31,420.516,266.53z"/>
			</g>
			<g>
				<path fill-rule="evenodd" clip-rule="evenodd" fill="#884843" d="M431.567,207.363c-2.106-1.563-4.217-3.123-6.322-4.68
					c-16.677-13.255-33.375-26.493-50-39.797c-2.72-2.172-5.117-4.638-7.667-6.971c1.16-1.25,2.32-2.496,3.474-3.744
					c1.565,0.095,7.947,4.697,9.968,6.533c0.618,0.564,2.686-0.036,4.093-0.102c1.065,1.169,2.133,2.336,3.196,3.507
					c2.434,8.669,2.492,8.676,13.18,1.868l-0.102-0.172c0,4.236,0,8.479,0,14.05c3.282-2.092,5.479-3.492,8.499-5.416
					c0.111,1.861,0.465,3.279,0.23,4.626c-0.813,4.729-4.672,10.23,7.222,7.327c4.167-1.019,10.67,4.6,15.932,7.426
					c1.894,1.017,3.129,2.886,4.9,4.105c2.809,1.935,5.819,3.652,8.745,5.459c-3.458,1.354-6.919,2.708-10.377,4.063l-0.695-0.18
					c-0.792,0.708-1.582,1.42-2.375,2.131l-0.952-0.056L431.567,207.363z"/>
			</g>
			<g>
				<path fill-rule="evenodd" clip-rule="evenodd" fill="#956865" d="M435.843,205.268c-0.207,2.683-0.408,5.368-0.612,8.055
					c-0.586-1.977-1.173-3.948-1.76-5.926C434.261,206.688,435.051,205.976,435.843,205.268z"/>
			</g>
			<g>
				<path fill-rule="evenodd" clip-rule="evenodd" fill="#956865" d="M435.24,276.204c0.012,2.041,0.025,4.083,0.04,6.125
					C435.266,280.287,435.252,278.245,435.24,276.204z"/>
			</g>
			<g>
				<path fill-rule="evenodd" clip-rule="evenodd" fill="#956865" d="M435.227,254.536c0.022,1.379,0.045,2.764,0.067,4.146
					C435.271,257.3,435.249,255.915,435.227,254.536z"/>
			</g>
			<g>
				<path fill-rule="evenodd" clip-rule="evenodd" fill="#956865" d="M435.199,246.589c0.005,0.754,0.008,1.503,0.008,2.255
					C435.207,248.092,435.204,247.343,435.199,246.589z"/>
			</g>
			<g>
				<path fill-rule="evenodd" clip-rule="evenodd" fill="#956865" d="M435.285,268.282c-0.022,0.751-0.045,1.503-0.072,2.257
					C435.24,269.787,435.263,269.033,435.285,268.282z"/>
			</g>
			<g>
				<path fill-rule="evenodd" clip-rule="evenodd" fill="#AA817E" d="M377.186,339.85c-1.012-2.137-2.021-4.272-3.034-6.413
					l-2.854,0.167c0.47,2.081,0.938,4.164,1.407,6.246H377.186z"/>
			</g>
			<g>
				<path fill-rule="evenodd" clip-rule="evenodd" fill="#694239" d="M443.716,317.912c0.019,1.328,0.03,2.655,0.05,3.979
					c-0.997,1.876-1.988,3.754-2.986,5.632c-0.007-3.258-0.016-6.516-0.024-9.777C441.741,317.804,442.729,317.857,443.716,317.912z
					"/>
			</g>
			<g>
				<path fill-rule="evenodd" clip-rule="evenodd" fill="#8A5451" d="M484.682,272.302c-1.715-0.77-3.422-1.54-5.137-2.308
					c-0.116-1.679-0.229-3.359-0.346-5.039c-2.269,0.352-4.537,0.707-6.802,1.062c-0.606-1.73-1.21-3.463-1.813-5.195
					c5.563-0.65,13.167-0.03,6.874-8.065c1.602-2.501,3.94-4.861,4.647-7.535c1.23-4.657,1.456-9.506,2.105-14.273
					c0.215,6.468,0.434,12.94,0.646,19.411c0,0.915,0,1.835,0,2.751C484.797,259.508,484.738,265.904,484.682,272.302z"/>
			</g>
			<g>
				<path fill-rule="evenodd" clip-rule="evenodd" fill="#8A5451" d="M471.666,266.458c-2.823-0.574-5.646-1.151-8.471-1.726
					C466.021,265.307,468.843,265.884,471.666,266.458z"/>
			</g>
			<g>
				<path fill-rule="evenodd" clip-rule="evenodd" fill="#967772" d="M451.434,253.181c-1.957-0.058-3.911-0.119-5.861-0.178
					c-0.086-0.773-0.17-1.546-0.253-2.317c2.042-0.224,4.086-0.448,6.133-0.668C451.441,251.072,451.438,252.126,451.434,253.181z"
					/>
			</g>
			<g>
				<path fill-rule="evenodd" clip-rule="evenodd" fill="#8A5451" d="M482.368,222.889c0.623,1.377,1.25,2.755,1.873,4.133
					C483.618,225.644,482.991,224.266,482.368,222.889z"/>
			</g>
			<g>
				<path fill-rule="evenodd" clip-rule="evenodd" fill="#967772" d="M493.935,252.351c-3.024,0.252-6.052,0.502-9.077,0.759
					c0-0.916,0-1.836,0-2.751c3.06,0.269,6.12,0.538,9.184,0.808C494.108,251.567,494.072,251.963,493.935,252.351z"/>
			</g>
			<g>
				<path fill-rule="evenodd" clip-rule="evenodd" fill="#694239" d="M444.265,235.094c-0.271,3.782-0.541,7.564-0.816,11.348
					c-0.874,0.06-1.75,0.123-2.624,0.184c-0.008-3.879-0.013-7.758-0.022-11.635C441.956,235.026,443.111,235.058,444.265,235.094z"
					/>
			</g>
			<g>
				<path fill-rule="evenodd" clip-rule="evenodd" fill="#956865" d="M522.758,325.068c0.226-2.189,0.451-4.375,0.671-6.564
					c0.709-2.886,1.417-5.779,2.124-8.67c0.811,5.293,1.618,10.586,2.431,15.881C526.243,325.497,524.501,325.282,522.758,325.068z"
					/>
			</g>
			<g>
				<path fill-rule="evenodd" clip-rule="evenodd" fill="#864F49" d="M514.551,317.746c-6.039,0.174-12.079,0.35-18.117,0.533
					c0.005,0.007-0.373-0.529-0.373-0.529c0.062-0.695,0.12-1.394,0.186-2.091C502.348,316.354,508.449,317.05,514.551,317.746z"/>
			</g>
			<g>
				<path fill-rule="evenodd" clip-rule="evenodd" fill="#D2A9A9" d="M496.246,315.659c-0.065,0.697-0.124,1.396-0.186,2.091
					c-0.471,0.318-1.002,0.453-1.596,0.403c-0.059-2.883-0.124-5.766-0.183-8.65c0.548,0.049,1.083,0.134,1.609,0.242
					C496.01,311.715,496.127,313.688,496.246,315.659z"/>
			</g>
			<g>
				<path fill-rule="evenodd" clip-rule="evenodd" fill="#8C5C58" d="M440.824,246.625c0.874-0.061,1.75-0.124,2.624-0.184
					c0.622,1.413,1.245,2.827,1.871,4.242c0.083,0.773,0.167,1.546,0.253,2.319c-0.118,0.546-0.382,1.03-0.799,1.452
					c-0.571,0.036-1.096,0.184-1.578,0.446c-0.842-1.401-1.689-2.806-2.533-4.211C440.719,249.335,440.772,247.979,440.824,246.625z
					"/>
			</g>
			<g>
				<path fill-rule="evenodd" clip-rule="evenodd" fill="#AA817E" d="M444.163,268.331c0.401,1.272,0.804,2.542,1.21,3.813
					C444.967,270.873,444.564,269.604,444.163,268.331z"/>
			</g>
			<g>
				<path fill-rule="evenodd" clip-rule="evenodd" fill="#AA817E" d="M443.195,254.901c0.482-0.263,1.007-0.41,1.578-0.446
					c-0.209,0.768-0.418,1.531-0.624,2.298C443.827,256.135,443.513,255.519,443.195,254.901z"/>
			</g>
			<g>
				<path fill-rule="evenodd" clip-rule="evenodd" fill="#8C5C58" d="M337.899,79.063c9.503,0.088,19.009,0.177,28.513,0.265
					c-2.14-1.283-4.281-2.571-6.428-3.858c-3.175-0.337-6.348-0.674-9.521-1.013c-4.189,0.078-8.375,0.155-12.564,0.231V79.063z"/>
			</g>
			<g>
				<path fill="#883B35" d="M360.525,214.875c-0.894-2.642-1.787-5.277-2.684-7.918c-4.48-5.4-8.492-11.176-13.731-15.972
					c-1.03-0.94-3.598-0.65-6.212-0.328v59.525c3.445,0.025,6.892,0.052,10.34,0.079c0.655,0.235,1.331,0.429,2.021,0.577
					c1.614-0.068,3.228-0.14,4.84-0.212c1.539,0.036,3.081,0.072,4.617,0.11l0.035-0.175c0.551-1.281,1.107-2.562,1.656-3.841
					C361.114,236.107,360.818,225.488,360.525,214.875z"/>
			</g>
			<g>
				<path fill-rule="evenodd" clip-rule="evenodd" fill="#883B35" d="M379.622,217.769c3.792-5.331,7.583-10.666,11.375-16.001
					c4.208,5.494,10.981,10.643,12.063,16.553c1.934,10.535,0.429,21.528,0.36,32.329c-1.494,0.05-2.984,0.098-4.478,0.145
					c-5.306,0.018-10.612,0.038-15.922,0.054c-1.39-7.326-2.782-14.651-4.171-21.976c0.013-1.272,0.031-2.547,0.045-3.816
					C379.14,222.629,379.382,220.198,379.622,217.769z"/>
			</g>
			<g>
				<path fill-rule="evenodd" clip-rule="evenodd" fill="#8A5451" d="M356.269,258.552c-0.393-2.644-0.778-5.281-1.169-7.925
					c-1.612,0.072-3.226,0.144-4.84,0.212c-3.389,2.427-7.895,3.661-12.361,3.733v2.472c2.661,0.161,5.303,0.247,7.793-0.18
					c3.752,1.271,7.502,2.537,11.252,3.81C356.72,259.966,356.493,259.261,356.269,258.552z"/>
			</g>
			<g>
				<path fill-rule="evenodd" clip-rule="evenodd" fill="#864F49" d="M354.701,103.19c-1.13-1.454-2.251-2.907-3.372-4.362
					c-2.639-3.748-5.277-7.502-7.914-11.251c-1.622,0.833-3.367,2.52-4.846,2.367c-0.24-0.024-0.444-0.044-0.67-0.071v7.709
					c0.419-0.346,0.832-0.698,1.202-1.06c2.024,1.58,5.735,3.227,5.649,4.712c-0.112,1.869-3.323,3.607-6.103,6.268
					c-0.245-0.277-0.496-0.547-0.749-0.816v6.493c4.904,0.824,10.178-2.383,16.837-9.755L354.701,103.19z"/>
			</g>
			<g>
				<path fill-rule="evenodd" clip-rule="evenodd" fill="#8A5451" d="M398.943,250.794c1.493-0.047,2.983-0.095,4.478-0.145
					c0.059,3.411,0.122,6.821,0.184,10.23c-0.646-0.277-1.334-0.475-2.05-0.587c-0.962-1.113-1.921-2.227-2.881-3.341
					c-3.67-0.052-7.345-0.108-11.014-0.157c-0.148,0.635-0.298,1.271-0.446,1.91l0.148,0.107c-0.135,0.422-0.153,0.843-0.054,1.27
					c-2.213,0.287-4.427,0.574-6.637,0.859c-0.77-0.155-1.541-0.313-2.313-0.465c0.167-10.535,0.33-21.071,0.492-31.607
					c1.389,7.327,2.781,14.652,4.171,21.982C388.327,250.832,393.638,250.812,398.943,250.794z"/>
			</g>
			<g>
				<path fill-rule="evenodd" clip-rule="evenodd" fill="#8D6261" d="M373.803,256.613c-2.264,3.13-4.528,6.259-6.794,9.388
					c-1.95-2.519-3.9-5.034-5.849-7.553c1.28-0.04,2.562-0.078,3.837-0.116c1.523-1.063,3.048-2.127,4.571-3.19
					c-1.575-0.781-3.148-1.558-4.716-2.338c-1.006,0.018-2.006,0.038-3.011,0.059c-0.465-0.185-0.952-0.316-1.458-0.386
					c-0.27-0.565-0.489-1.147-0.667-1.739l0.035-0.175c0.867-0.741,1.729-1.476,2.594-2.214c3.823,0.765,7.646,1.53,11.471,2.292
					C373.811,252.633,373.807,254.621,373.803,256.613z"/>
			</g>
			<g>
				<path fill-rule="evenodd" clip-rule="evenodd" fill="#AA817E" d="M351.329,98.828c-2.639-3.748-5.277-7.502-7.914-11.251
					c8.207-4.478,8.743,4.205,13.458,5.724C355.026,95.141,353.178,96.985,351.329,98.828z"/>
			</g>
			<g>
				<path fill-rule="evenodd" clip-rule="evenodd" fill="#967772" d="M354.736,103.424l-0.035-0.233
					c2.13-0.771,4.265-1.548,6.396-2.319c-0.232,1.97-0.468,3.939-0.702,5.906C358.506,105.661,356.621,104.543,354.736,103.424z"/>
			</g>
			<g>
				<path fill-rule="evenodd" clip-rule="evenodd" fill="#AA817E" d="M345.692,256.864c3.752,1.271,7.502,2.537,11.252,3.81
					c-0.534,1.598-1.075,3.199-1.613,4.799c-0.974-0.832-1.966-1.646-2.913-2.501C350.164,260.947,347.935,258.904,345.692,256.864z
					"/>
			</g>
			<g>
				<path fill-rule="evenodd" clip-rule="evenodd" fill="#AA817E" d="M398.674,256.952c0.96,1.114,1.919,2.228,2.881,3.341
					c-2.35,0.242-4.702,0.484-7.052,0.723c-1.566,0.013-3.129,0.022-4.688,0.03c-0.84-0.322-1.671-0.641-2.506-0.964
					c-0.1-0.427-0.081-0.848,0.054-1.27C391.137,258.192,394.904,257.574,398.674,256.952z"/>
			</g>
			<g>
				<path fill-rule="evenodd" clip-rule="evenodd" fill="#8D6261" d="M374.151,333.437c-0.948,0.059-1.901,0.108-2.854,0.167
					c-2.707-0.022-5.423-0.041-8.131-0.059C366.826,333.51,370.492,333.473,374.151,333.437z"/>
			</g>
			<g>
				<path fill-rule="evenodd" clip-rule="evenodd" fill="#956865" d="M364.997,258.332c-1.275,0.038-2.557,0.076-3.837,0.116
					c-0.005,0-0.206-0.888-0.203-0.893c0.3-1.562,0.591-3.127,0.885-4.693c1.005-0.021,2.005-0.041,3.011-0.059
					C364.902,254.647,364.951,256.489,364.997,258.332z"/>
			</g>
			<g>
				<path fill-rule="evenodd" clip-rule="evenodd" fill="#8A5451" d="M378.896,225.056c-0.234-1.992-0.47-3.982-0.702-5.973
					c0.338-0.552,0.814-0.987,1.434-1.31C379.382,220.198,379.14,222.629,378.896,225.056z"/>
			</g>
			<g>
				<path fill-rule="evenodd" clip-rule="evenodd" fill="#AA817E" d="M361.842,252.862c-0.294,1.566-0.585,3.132-0.885,4.693
					c-0.459-0.968-0.91-1.938-1.365-2.912c0.264-0.722,0.527-1.445,0.792-2.167C360.89,252.546,361.377,252.678,361.842,252.862z"/>
			</g>
			<g>
				<path fill-rule="evenodd" clip-rule="evenodd" fill="#956865" d="M362.346,248.349c-0.865,0.738-1.727,1.473-2.594,2.214
					c0.551-1.281,1.107-2.562,1.656-3.841C361.945,247.17,362.257,247.711,362.346,248.349z"/>
			</g>
			<g>
				<path fill-rule="evenodd" clip-rule="evenodd" fill="none" d="M427.242,339.85c0.813-2.877,1.736-5.754,1.768-8.643
					c0.246-21.256,0.129-42.516,0.134-63.773v-14.431c-0.996,0.036-1.987,0.07-2.984,0.106v86.74H427.242z"/>
			</g>
		</g>
	</g>
	<linearGradient id="SVGID_1_" gradientUnits="userSpaceOnUse" x1="0.6167" y1="170.9482" x2="331.4644" y2="170.9482">
		<stop  offset="0" style="stop-color:#11558B"/>
		<stop  offset="0.1446" style="stop-color:#1E689D"/>
		<stop  offset="0.4137" style="stop-color:#318CBF"/>
		<stop  offset="0.6556" style="stop-color:#41AAD9"/>
		<stop  offset="0.8592" style="stop-color:#4BBEEB"/>
		<stop  offset="1" style="stop-color:#4EC9F5"/>
	</linearGradient>
	<path fill="url(#SVGID_1_)" d="M195.229,339.85H0.617c0.247-17.621,1.844-35.117,4.759-52.329l96.242-20.636
		c4.35-13.524,9.822-26.672,16.36-39.285l-53.154-82.846c21.664-30.261,48.398-57.229,79.637-79.426l82.684,53.491
		c6.269-3.218,12.712-6.211,19.339-8.939c6.632-2.731,13.311-5.146,20.021-7.282l21.004-96.212
		c14.655-2.423,29.337-3.85,43.956-4.339v194.834c-14.996,1.185-30.064,4.666-44.719,10.706
		C231.14,230.499,196.995,283.396,195.229,339.85z"/>
	<g>
		<path fill="#174025" d="M111.275,556.203c-34.667-0.094-61.881-8.844-81.638-26.271C9.876,512.513,0,488.623,0,458.264
			c0-30.351,9.787-54.285,29.368-71.799c19.575-17.513,46.43-26.271,80.562-26.271c26.041,0,48.404,4.851,67.086,14.552
			l0.539,46.343H175.4c-9.16-33.053-30.088-49.578-62.779-49.578c-21.197,0-37.947,7.678-50.249,23.037
			c-12.306,15.359-18.456,36.332-18.456,62.908c0,26.587,5.88,47.689,17.648,63.318c11.763,15.624,27.705,23.71,47.825,24.248
			c20.834,0,36.731-5.21,47.689-15.629c11.135-10.778,18.86-29.273,23.172-55.501h2.153l2.697,46.343
			C170.55,544.303,145.938,556.293,111.275,556.203z"/>
		<path fill="#174025" d="M453.186,549.872h4.31v2.692h-80.829v-2.423h4.042c3.052-0.18,5.657-1.436,7.814-3.773
			c2.156-2.333,3.053-4.936,2.695-7.812l-10.51-97.802l-50.653,87.292c-6.648,11.141-10.063,21.106-10.237,29.906h-2.697
			l-69.245-116.391l-10.507,96.994c-0.361,2.876,0.539,5.522,2.695,7.945c2.153,2.428,4.756,3.64,7.812,3.64h4.042v2.423h-56.313
			v-2.692h4.312c5.026,0,9.383-1.525,13.066-4.581c3.68-3.052,5.883-7.184,6.603-12.395l22.361-172.703h2.428l83.523,137.409
			l80.292-137.409h2.422l22.902,172.703c0.898,5.211,3.189,9.343,6.873,12.395C444.068,548.347,448.337,549.872,453.186,549.872z"/>
		<path fill="#174025" d="M468.271,527.508c0-12.932,2.783-23.979,8.354-33.142h2.425c-0.183,1.44-0.272,2.876-0.272,4.313
			c0,12.394,4.448,23.217,13.342,32.469c8.888,9.252,21.055,13.874,36.504,13.874c12.035,0,21.421-2.871,28.155-8.624
			c6.735-5.743,10.105-13.017,10.105-21.821c0-5.21-1.664-9.876-4.984-14.013c-3.325-4.128-8.849-8.71-16.572-13.739l-46.878-30.984
			c-17.426-11.67-26.138-26.038-26.138-43.106c0-1.796,0.181-3.59,0.538-5.39c1.08-14.188,6.603-25.595,16.572-34.219
			c9.969-8.62,23.309-12.932,40.012-12.932c9.877,0,22.092,0.902,36.643,2.696h16.975l-3.504,39.604h-2.692
			c0-9.339-3.46-16.841-10.374-22.499c-6.919-5.654-16.122-8.485-27.617-8.485c-14.01,0-24.159,4.313-30.446,12.932
			c-3.232,4.138-4.847,8.266-4.847,12.394c0,4.137,0.805,7.638,2.425,10.509c2.513,4.676,7.986,9.701,16.431,15.091l51.463,33.405
			c16.168,10.6,24.248,24.429,24.248,41.493c0,19.039-6.511,33.635-19.531,43.781c-13.026,10.148-30.311,15.224-51.867,15.224
			c-12.219,0-23.488-1.48-33.813-4.447c-10.332-2.961-17.918-6.959-22.768-11.988C468.896,536.492,468.271,532.359,468.271,527.508z
			"/>
	</g>
	<g>
		<path fill="#88423E" d="M597.52,350.715c0,1.64-2.354,2.981-5.233,2.981H5.85c-2.878,0-5.233-1.342-5.233-2.981
			s2.355-2.981,5.233-2.981h586.437C595.165,347.733,597.52,349.075,597.52,350.715z"/>
	</g>
</g>
</svg>
