<?xml version="1.0" encoding="utf-8"?>
<!-- Generator: Adobe Illustrator 16.0.0, SVG Export Plug-In . SVG Version: 6.00 Build 0)  -->
<!DOCTYPE svg PUBLIC "-//W3C//DTD SVG 1.1//EN" "http://www.w3.org/Graphics/SVG/1.1/DTD/svg11.dtd">
<svg version="1.1" id="Layer_1" xmlns="http://www.w3.org/2000/svg" xmlns:xlink="http://www.w3.org/1999/xlink" x="0px" y="0px"
	 width="512px" height="560px" viewBox="0 0 512 560" enable-background="new 0 0 512 560" xml:space="preserve">
<g>
	<g>
		<g>
			<path fill="#666666" d="M229.219,375.87c0.396-0.683,0.796-1.231,1.192-1.68c15.061-24.109,23.279-53.616,23.279-84.079
				c0-76.849-51.616-139.371-115.049-139.371S23.604,213.263,23.604,290.111c0,30.811,8.392,60.632,23.789,84.883
				c0.158,0.23,0.325,0.493,0.482,0.765c0.498,0.771,1.003,1.541,1.521,2.302c5.756,7.668,13.128,5.905,15.256,5.171
				c0.2-0.074,0.403-0.154,0.604-0.229l0,0c7.604-2.892,16.045-5.314,25.154-7.23l15.936-3.34l-12.013-11.256
				c-9.784-9.148-16.143-21.555-17.917-34.944l-0.89-6.756l-6.627-0.552c-10.912-0.918-19.47-10.441-19.47-21.688
				c0-11.205,8.181-20.516,19.025-21.652l7.31-0.769l0.098-5.959c7.366-2.236,39.822-13.005,62.626-35.925
				c5.371,6.442,25.516,27.722,62.935,36.041l0.098,5.844l7.306,0.769c10.848,1.136,19.024,10.447,19.024,21.651
				c0,11.246-8.543,20.771-19.454,21.688l-6.623,0.552l-0.902,6.756c-1.775,13.391-8.139,25.792-17.916,34.944l-12.012,11.256
				l15.928,3.34c9.531,1.991,18.307,4.56,26.179,7.622C215.928,384.237,223.72,385.38,229.219,375.87z"/>
			<path fill="#FBCB99" d="M169.592,402.502v-30.848l-10.357,2.775c-4.635,1.242-9.434,1.866-14.242,1.866h-12.699
				c-4.836,0-9.66-0.637-14.344-1.895l-10.369-2.804v30.892l-30.856,7.583l6.71,24.58l2.776,1.742
				c4.172,2.604,15.532,9.03,31.022,12.521c7.28,1.645,14.63,2.476,21.824,2.476l0,0c17.848,0,35.314-5.065,51.91-15.032
				l2.877-1.735l6.593-24.132L169.592,402.502z"/>
			<path fill="#EDBA89" d="M127.156,448.916c-15.483-3.489-26.847-9.917-31.015-12.52l0,0l-6.6-24.902l25.293-6.262v-29.721
				l-7.253-3.913v30.892l-30.856,7.583l6.71,24.58l2.776,1.743c4.172,2.603,15.532,9.029,31.022,12.52
				c7.28,1.645,14.63,2.476,21.824,2.476l0,0c1.629,0,3.247-0.063,4.865-0.147C138.359,450.956,132.743,450.174,127.156,448.916z"/>
			<path fill="#606060" d="M179.659,439.99c-13.137,6.109-26.896,9.208-40.878,9.208c-7.23,0-14.514-0.833-21.631-2.471
				c-6.68-1.546-13.253-3.778-19.538-6.646l-12.081-5.498l30.578,110.987h45.068l30.645-111.239L179.659,439.99z"/>
			<polygon fill="#3C3D3C" points="85.52,434.585 116.109,545.572 126.036,545.572 96.877,439.75 			"/>
			<g>
				<path fill="#828282" d="M243.873,427.621c-3.685-2.163-7.846-4.197-12.194-6.103l-1.973-0.836
					c-13.394-5.632-28.111-9.854-35.839-11.916l-37.329,136.806h105.348c11.746,0,13.828-9.487,14.144-14.049v-40.79
					C276.029,457.408,258.628,437.279,243.873,427.621z"/>
				<path fill="#828282" d="M82.179,408.768c-7.736,2.062-22.442,6.284-35.839,11.916l-1.973,0.836
					c-4.353,1.904-8.512,3.938-12.193,6.103C17.41,437.279,0,457.408,0,490.733v40.79c0.332,4.562,2.421,14.049,14.163,14.049
					h105.341L82.179,408.768z"/>
			</g>
			<g>
				<path fill="#666565" d="M13.653,531.523v-21.568v-19.222c0-33.325,17.411-53.454,32.166-63.112
					c3.688-2.163,7.856-4.197,12.206-6.102l1.964-0.837c7.83-3.293,16.105-6.103,23.189-8.285l-1-3.631
					c-7.729,2.062-22.442,6.284-35.839,11.916l-1.973,0.837c-4.345,1.903-8.508,3.938-12.186,6.102
					c-14.759,9.658-32.173,29.787-32.173,63.112v40.79c0.325,4.499,2.361,13.766,13.646,14.028V531.523z"/>
				<path fill="#666565" d="M231.486,545.572v-56.018c0-3.516-2.776-6.361-6.201-6.361c-3.429,0-6.2,2.847-6.2,6.361v56.018H231.486
					z"/>
				<path fill="#666565" d="M56.237,545.572v-56.018c0-3.516-2.772-6.361-6.201-6.361c-3.429,0-6.201,2.847-6.201,6.361v56.018
					H56.237z"/>
			</g>
			<path fill="#FBCB99" d="M213.088,270.472c-3.33-1.062-6.956-0.447-9.765,1.681c-2.813,2.122-4.477,5.493-4.477,9.074v32.111
				c0,3.577,1.663,6.948,4.477,9.072c1.909,1.438,4.19,2.191,6.502,2.191c1.086,0,2.192-0.165,3.263-0.51
				c2.105-0.675,4.164-1.646,6.144-2.888c1.166-0.725,2.176-1.677,2.998-2.785c1.215-0.643,2.297-1.506,3.199-2.556
				c4.432-5.148,6.876-11.746,6.876-18.59C232.305,284.921,224.581,274.149,213.088,270.472z"/>
			<path fill="#EDBA89" d="M73.851,272.153c-2.817-2.128-6.435-2.743-9.772-1.681c-11.497,3.677-19.213,14.449-19.213,26.803
				c0,12.359,7.717,23.138,19.213,26.817c1.071,0.345,2.168,0.51,3.27,0.51c2.309,0,4.59-0.753,6.502-2.191
				c2.817-2.124,4.473-5.495,4.473-9.072v-32.114C78.324,277.646,76.668,274.275,73.851,272.153z"/>
			<path fill="#FBCB99" d="M205.477,270.909c0,0,0.044-0.228,0.06-0.605v-0.558c-0.068-1.354-0.642-3.555-3.361-4.919l-2.975-0.733
				c-28.722-7.079-45.906-21.356-54.057-29.893l0,0c-6.92-6.508-14.098,0-14.098,0h-0.008
				c-19.553,17.464-43.808,26.564-53.51,29.708l-1.305,0.418l0,0c-3.312,1.121-4.254,3.292-4.48,4.833v49.214
				c0,34.284,27.164,62.181,60.552,62.181h12.699c33.38,0,60.544-27.896,60.544-62.181v-47.52L205.477,270.909z"/>
			<g>
				<path fill="#EDBA89" d="M142.839,232.493c-6.121-3.429-11.793,1.707-11.793,1.707h-0.008
					c-19.553,17.464-43.808,26.564-53.51,29.708l-1.305,0.418l0,0c-3.312,1.121-4.254,3.292-4.48,4.833v49.214
					c0,34.284,27.164,62.181,60.552,62.181h9.935c-33.399,0-60.559-27.896-60.559-62.181V272.75c0-5.607,4.01-8.062,6.306-9.013
					c0.494-0.161,1.015-0.329,1.566-0.525h0.003l0,0c11.092-3.791,34.477-13.225,53.026-30.471L142.839,232.493z"/>
				<path fill="#EDBA89" d="M143.959,317.128c2.282,0,4.134,1.903,4.134,4.242c0,2.346-1.852,4.252-4.134,4.252h-10.572
					c-2.27,0-4.129-1.906-4.129-4.252v-20.694c0-2.338,1.859-4.244,4.129-4.244c2.286,0,4.134,1.906,4.134,4.244v16.452H143.959z"/>
			</g>
			<path fill="#545454" d="M47.875,375.759c0.498,0.772,1.003,1.545,1.521,2.312c5.974,7.964,13.718,5.733,15.486,5.08
				c0.129-0.044,0.253-0.098,0.374-0.148l-0.992-1.383c-18.225-25.332-28.262-57.823-28.262-91.506
				c0-74.324,48.274-135.251,108.845-139.172c-2.056-0.127-4.123-0.199-6.205-0.199c-63.433,0-115.038,62.522-115.038,139.371
				c0,30.811,8.396,60.632,23.789,84.883C47.55,375.226,47.717,375.487,47.875,375.759z"/>
		</g>
		<g>
			<g>
			</g>
			<g>
				<g>
					<polygon fill="#5D5E5E" points="263.757,478.888 272.889,453.927 244.883,432.757 216.781,453.992 226.934,478.888 					"/>
					<polygon fill="#3C3D3C" points="226.934,478.888 227.47,480.2 214.936,560 275.869,560 263.313,480.115 263.757,478.888 					
						"/>
				</g>
				<polygon fill="#D2D2D7" points="222.744,560 235.436,479.226 223.166,449.16 183.819,410.755 191.525,468.351 216.532,560 				
					"/>
				<polygon fill="#E4E4EA" points="274.382,560 299.675,467.29 307.381,409.682 266.443,449.047 255.369,479.31 268.053,560 				
					"/>
				<path fill="#F5F5F7" d="M274.963,465.222c8.098,6.119,12.993,0.673,14.814-2.159l25.808-54.438l-33.293-22.567l-7.856,14.528
					l-29.287,31.216l-28.496-28.5l-5.526-19.706l-36.94,25.022l25.188,53.163c0.698,1.413,5.804,10.806,15.547,3.45l29.962-22.639
					l28.552,21.572C273.889,464.448,274.395,464.788,274.963,465.222z"/>
				<path fill="#666666" d="M249.126,114.107h-7.811c-53.375,0-96.798,44.586-96.798,99.384v13.255v12.412v20.957
					c0,0,22.042-2.25,24.754-13.221l-0.019-0.007c0.936-1.034,1.712-2.221,2.259-3.547c12.499-0.391,70.897-0.852,104.247-42.204
					c3.977,11.954,17.434,34.588,43.338,41.716c0.535,1.441,1.331,2.74,2.297,3.865l-0.211,0.188
					c2.711,10.966,24.754,13.21,24.754,13.21V239.07v-12.324v-13.255C345.936,158.693,302.508,114.107,249.126,114.107z
					 M322.117,239.757l0.932-0.687h0.133l-1.518,1.148L322.117,239.757z M321.639,240.055l0.102-0.337l0.328-0.648h0.127
					l-0.379,0.817L321.639,240.055z M319.074,242.094l-0.042-0.048l2.387-1.772l-0.56,0.556l-1.75,1.326L319.074,242.094z
					 M321.039,241.519l-0.744,1.586c-0.007,0-0.016,0-0.016,0l-0.098-0.054c-0.022-0.002-0.046-0.014-0.061-0.026l1.223-2.483
					l0.03-0.033L321.039,241.519z"/>
				<path fill="#4F4F4F" d="M161.578,239.153v-12.407v-13.255c0-53.207,40.942-96.772,92.169-99.26
					c-1.523-0.079-3.069-0.124-4.62-0.124h-7.811c-53.375,0-96.798,44.586-96.798,99.384v13.255v12.407v20.961
					c0,0,9.742-0.998,17.06-4.881V239.153L161.578,239.153z"/>
				<path fill="#FBCB99" d="M334.305,245.703c-3.705-1.187-7.721-0.496-10.844,1.867c-3.126,2.36-4.968,6.103-4.968,10.083v35.656
					c0,3.975,1.842,7.719,4.968,10.066c2.116,1.613,4.654,2.445,7.215,2.445c1.215,0,2.444-0.188,3.629-0.568
					c2.342-0.75,4.631-1.824,6.826-3.204c1.282-0.809,2.414-1.868,3.327-3.099c1.347-0.71,2.542-1.674,3.549-2.842
					c4.931-5.709,7.642-13.041,7.642-20.632C355.648,261.754,347.07,249.789,334.305,245.703z"/>
				<path fill="#EDBA89" d="M167.344,247.57c-3.115-2.363-7.147-3.054-10.848-1.867c-12.763,4.085-21.336,16.051-21.336,29.772
					c0,13.723,8.573,25.689,21.336,29.773c1.188,0.385,2.411,0.572,3.628,0.572c2.569,0,5.099-0.832,7.219-2.445
					c3.123-2.348,4.971-6.093,4.971-10.066v-35.667C172.315,253.672,170.467,249.922,167.344,247.57z"/>
				<path fill="#FBCB99" d="M278.68,355.467c-2.4-2.363-5.613-3.595-8.955-3.47l-0.404,0.024c-0.75,0.026-1.489,0.121-2.221,0.29
					c-4.709,1.073-9.502,1.616-14.244,1.616h-14.898c-4.895,0-9.829-0.569-14.672-1.72c-3.628-0.858-7.426,0.035-10.319,2.409
					c-2.904,2.384-4.602,5.979-4.602,9.784v36.396v0.133c-0.196,3.609,1.143,7.121,3.652,9.646l24.493,24.501
					c2.286,2.275,5.341,3.542,8.51,3.542c0.067,0,0.128,0,0.188,0c3.251-0.063,6.336-1.44,8.584-3.834l25.233-26.881
					c2.187-2.34,3.416-5.452,3.416-8.683v-34.72C282.443,361.084,281.078,357.827,278.68,355.467z"/>
				<path fill="#EDBA89" d="M247.49,431.316l-24.497-24.497c-2.52-2.518-3.854-6.036-3.663-9.648l0.008-0.125v-36.399
					c0-3.2,1.21-6.249,3.319-8.546c-3.428-0.612-6.955,0.282-9.689,2.519c-2.904,2.376-4.598,5.979-4.598,9.784v36.396l-0.004,0.128
					c-0.196,3.614,1.143,7.126,3.652,9.65l24.493,24.501c2.286,2.275,5.341,3.542,8.51,3.542c0.067,0,0.131,0,0.192,0
					c3.247-0.063,6.333-1.44,8.581-3.834l0.117-0.116C251.503,434.244,249.255,433.081,247.49,431.316z"/>
				<path fill="#FBCB99" d="M316.652,235.491c-1.473-0.562-2.859-1.225-4.226-1.923c-20.477-9.807-28.974-22.568-32.399-30.182
					c-0.198-0.285-0.414-0.599-0.614-0.996c-2.444-4.622-6.265-1.702-6.265-1.702l-0.02-0.006
					c-19.115,15.06-40.011,23.865-57.375,28.992c-6.767,2.05-13.247,3.537-19.104,4.606c-11.632,2.195-19.12,2.486-19.12,2.486
					c-6.371,0.473-11.318,5.922-11.318,12.486v51.059c0,40.604,32.188,73.642,71.746,73.642h14.898
					c39.55,0,71.72-33.038,71.72-73.642v-53.095C324.581,241.99,321.412,237.313,316.652,235.491z"/>
				<path fill="#EDBA89" d="M180.835,300.311v-51.058c0-6.564,4.945-12.014,11.323-12.486c0,0,7.475-0.291,19.123-2.486
					c5.858-1.07,12.337-2.556,19.107-4.606c15.366-4.54,33.493-11.972,50.711-24.053c-0.394-0.785-0.759-1.532-1.072-2.236
					c-0.198-0.285-0.414-0.599-0.614-0.996c-2.448-4.624-6.265-1.702-6.265-1.702l-0.02-0.006
					c-19.115,15.06-40.011,23.865-57.375,28.992c-6.767,2.05-13.247,3.537-19.104,4.606c-11.632,2.195-19.12,2.486-19.12,2.486
					c-6.371,0.473-11.318,5.922-11.318,12.48v51.064c0,40.604,32.184,73.642,71.746,73.642h14.604
					C213.028,373.952,180.835,340.914,180.835,300.311z"/>
				<g>
					<path fill="#828282" d="M105.748,560h118.807l-42.583-156.033l-43.899,18.787l-0.061,0.024
						c-17.829,6.42-48.01,29.733-48.01,76.317v44.757C90.243,548.679,92.219,560,105.748,560z"/>
					<path fill="#828282" d="M399.076,544.388v-45.274c0-47.169-31.393-70.545-48.074-76.361l-42.255-18.085L266.368,560h116.987
						C396.398,560,398.717,549.472,399.076,544.388z"/>
				</g>
				<g>
					<path fill="#666565" d="M181.971,403.967l-43.899,18.787l-0.061,0.024c-17.829,6.42-48.01,29.733-48.01,76.317v44.757
						c0.242,4.817,2.218,16.14,15.747,16.14h1.97v-60.896c0-46.584,30.177-69.897,48.006-76.317l0.068-0.024l28.028-11.999
						L181.971,403.967z"/>
					<path fill="#666565" d="M349.598,560v-62.204c0-3.911-3.082-7.074-6.887-7.074c-3.811,0-6.883,3.163-6.883,7.074V560H349.598z"
						/>
					<path fill="#666565" d="M154.973,560v-62.204c0-3.911-3.07-7.074-6.88-7.074c-3.806,0-6.887,3.163-6.887,7.074V560H154.973z"/>
				</g>
				<path fill="#EDBA89" d="M252.393,306.299c2.539,0,4.591,2.114,4.591,4.717c0,2.596-2.052,4.716-4.591,4.716H240.66
					c-2.526,0-4.598-2.12-4.598-4.716V288.03c0-2.593,2.071-4.716,4.598-4.716c2.531,0,4.594,2.123,4.594,4.716v18.27
					L252.393,306.299L252.393,306.299z"/>
			</g>
		</g>
	</g>
	<g>
		<g>
			<g>
				<path fill="#FFEA91" d="M511.414,151.259H343.718c0-6.863,0-144.41,0-151.259h167.696V151.259z"/>
				<path d="M394.682,117.383c3.025,0,5.478-2.517,5.478-5.625c0-15.517,12.299-28.138,27.405-28.138
					c15.113,0,27.409,12.622,27.409,28.138c0,3.108,2.452,5.625,5.48,5.625s5.479-2.517,5.479-5.625
					c0-21.724-17.215-39.393-38.369-39.393c-21.152,0-38.366,17.669-38.366,39.393C389.198,114.866,391.648,117.383,394.682,117.383
					z"/>
				<path d="M394.682,61.113c3.025,0,5.478-2.521,5.478-5.629V44.229c0-3.108-2.452-5.626-5.478-5.626
					c-3.033,0-5.483,2.518-5.483,5.626v11.254C389.198,58.591,391.648,61.113,394.682,61.113z"/>
				<path d="M460.454,61.113c3.028,0,5.479-2.521,5.479-5.629V44.229c0-3.108-2.451-5.626-5.479-5.626
					c-3.029,0-5.48,2.518-5.48,5.626v11.254C454.973,58.591,457.425,61.113,460.454,61.113z"/>
			</g>
		</g>
		<g>
			<rect x="327.598" y="168.62" fill="#FFEA91" width="24.385" height="25.034"/>
			<rect x="301.999" y="194.277" fill="#FFEA91" width="15.845" height="16.274"/>
			<rect x="278.227" y="201.788" fill="#FFEA91" width="12.189" height="12.517"/>
		</g>
	</g>
</g>
</svg>
