<?xml version="1.0" encoding="utf-8"?>
<!-- Generator: Adobe Illustrator 16.0.0, SVG Export Plug-In . SVG Version: 6.00 Build 0)  -->
<!DOCTYPE svg PUBLIC "-//W3C//DTD SVG 1.1//EN" "http://www.w3.org/Graphics/SVG/1.1/DTD/svg11.dtd">
<svg version="1.1" id="Layer_1" xmlns="http://www.w3.org/2000/svg" xmlns:xlink="http://www.w3.org/1999/xlink" x="0px" y="0px"
	 width="578.084px" height="560px" viewBox="0 0 578.084 560" enable-background="new 0 0 578.084 560" xml:space="preserve">
<g>
	<g>
		<path fill="#FFD671" d="M511.272,559.357H0.444c0-22.222,0-467.667,0-489.857h510.829V559.357z"/>
		<path d="M155.684,449.649c9.221,0,16.692-8.156,16.692-18.217c0-50.248,37.452-91.123,83.486-91.123
			c46.032,0,83.486,40.875,83.486,91.123c0,10.06,7.468,18.217,16.691,18.217c9.222,0,16.698-8.156,16.698-18.217
			c0-70.351-52.428-127.573-116.875-127.573c-64.445,0-116.876,57.223-116.876,127.573
			C138.984,441.492,146.46,449.649,155.684,449.649z"/>
		<path d="M155.684,267.412c9.221,0,16.692-8.163,16.692-18.224V212.74c0-10.064-7.472-18.225-16.692-18.225
			c-9.224,0-16.698,8.161-16.698,18.225v36.447C138.984,259.248,146.46,267.412,155.684,267.412z"/>
		<path d="M356.035,267.412c9.222,0,16.698-8.163,16.698-18.224V212.74c0-10.064-7.475-18.225-16.698-18.225
			s-16.693,8.161-16.693,18.225v36.447C339.343,259.248,346.811,267.412,356.035,267.412z"/>
	</g>
	<rect x="0" y="542.346" fill="#937A41" width="511.718" height="17.654"/>
</g>
<g>
	<path fill="none" stroke="#FFFFFF" stroke-width="15.6272" stroke-miterlimit="10" d="M475.724,204.719
		c-56.441,0-102.359-45.918-102.359-102.359S419.283,0,475.724,0s102.359,45.918,102.359,102.359S532.166,204.719,475.724,204.719z"
		/>
	<circle fill="none" stroke="#231F20" stroke-width="15.6272" stroke-miterlimit="10" cx="475.724" cy="102.359" r="93.636"/>
	<polyline fill="none" stroke="#231F20" stroke-width="15.6272" stroke-linecap="round" stroke-miterlimit="10" points="
		514.718,146.871 473.643,107.803 473.643,44.264 	"/>
	<g>
		<g>
			<path fill="none" stroke="#231F20" stroke-width="15.6272" stroke-miterlimit="10" d="M510.596,163.587
				c-1.691,0.965-3.428,1.863-5.203,2.688"/>
			<path fill="none" stroke="#231F20" stroke-width="15.6272" stroke-miterlimit="10" stroke-dasharray="11.7174,11.7174" d="
				M494.406,170.304c-5.949,1.632-12.214,2.503-18.682,2.503c-38.907,0-70.448-31.54-70.448-70.448
				c0-34.931,25.421-63.922,58.772-69.484"/>
			<path fill="none" stroke="#231F20" stroke-width="15.6272" stroke-miterlimit="10" d="M469.87,32.151
				c0.613-0.05,1.229-0.093,1.847-0.127c1.326-0.075,2.663-0.113,4.008-0.113"/>
		</g>
	</g>
</g>
</svg>
