<?xml version="1.0" encoding="utf-8"?>
<!-- Generator: Adobe Illustrator 16.0.0, SVG Export Plug-In . SVG Version: 6.00 Build 0)  -->
<!DOCTYPE svg PUBLIC "-//W3C//DTD SVG 1.1//EN" "http://www.w3.org/Graphics/SVG/1.1/DTD/svg11.dtd">
<svg version="1.1" id="Layer_1" xmlns="http://www.w3.org/2000/svg" xmlns:xlink="http://www.w3.org/1999/xlink" x="0px" y="0px"
	 width="578.084px" height="560px" viewBox="0 0 578.084 560" enable-background="new 0 0 578.084 560" xml:space="preserve">
<g>
	<g>
		<path fill="#6BF953" d="M511.272,559.357H0.444c0-22.222,0-467.667,0-489.857h510.829V559.357z"/>
		<path d="M356.042,303.859c-9.221,0-16.692,8.156-16.692,18.217c0,50.248-37.452,91.123-83.486,91.123
			c-46.032,0-83.486-40.875-83.486-91.123c0-10.06-7.468-18.217-16.691-18.217c-9.222,0-16.698,8.156-16.698,18.217
			c0,70.351,52.428,127.573,116.875,127.573c64.445,0,116.876-57.223,116.876-127.573
			C372.742,312.017,365.265,303.859,356.042,303.859z"/>
		<path d="M155.684,267.412c9.221,0,16.692-8.163,16.692-18.224V212.74c0-10.064-7.472-18.225-16.692-18.225
			c-9.224,0-16.698,8.161-16.698,18.225v36.447C138.984,259.248,146.46,267.412,155.684,267.412z"/>
		<path d="M356.035,267.412c9.222,0,16.698-8.163,16.698-18.224V212.74c0-10.064-7.475-18.225-16.698-18.225
			s-16.693,8.161-16.693,18.225v36.447C339.343,259.248,346.811,267.412,356.035,267.412z"/>
	</g>
	<rect x="0" y="542.346" fill="#937A41" width="511.718" height="17.654"/>
</g>
<g>
	<path fill="none" stroke="#FFFFFF" stroke-width="15.6272" stroke-miterlimit="10" d="M475.724,204.719
		c-56.441,0-102.359-45.918-102.359-102.359S419.283,0,475.724,0s102.359,45.918,102.359,102.359S532.166,204.719,475.724,204.719z"
		/>
	
		<circle fill="none" stroke="#106B00" stroke-width="15.6272" stroke-linecap="round" stroke-miterlimit="10" cx="475.724" cy="102.359" r="93.636"/>
	<path fill="#FFFFFF" d="M460.108,170.241l-8.949-15.631c-12.272-21.437-26.265-28.509-26.402-28.574l8.57-18.071
		c0.642,0.305,13.078,6.352,26.038,23.012c26.873-40.756,65.252-65.381,67.044-66.517l10.705,16.894
		c-0.436,0.277-44.631,28.73-68.471,73.028L460.108,170.241z"/>
	<path fill="none" stroke="#106B00" stroke-width="11.8223" stroke-miterlimit="10" d="M429.042,117c0,0,16.621,7.882,30.796,32.642
		c25.446-47.282,71.924-76.735,71.924-76.735"/>
</g>
</svg>
