<?xml version="1.0" encoding="utf-8"?>
<!-- Generator: Adobe Illustrator 16.0.0, SVG Export Plug-In . SVG Version: 6.00 Build 0)  -->
<!DOCTYPE svg PUBLIC "-//W3C//DTD SVG 1.1//EN" "http://www.w3.org/Graphics/SVG/1.1/DTD/svg11.dtd">
<svg version="1.1" id="Layer_1" xmlns="http://www.w3.org/2000/svg" xmlns:xlink="http://www.w3.org/1999/xlink" x="0px" y="0px"
	 width="453.333px" height="560px" viewBox="52.834 0 453.333 560" enable-background="new 52.834 0 453.333 560"
	 xml:space="preserve">
<g>
	<path fill="#B3B3B3" d="M1143.741,57.317h259.924c-9.498-139.219-120.703-250.434-259.924-259.925V57.317z"/>
	<path fill="#494848" d="M1330.153,266.358c41.924-45.467,69.031-104.822,73.502-170.423h-243.926L1330.153,266.358z"/>
	<path fill="#7A7979" d="M1105.124,95.936v-298.543C959.521-192.682,844.466-71.506,844.466,76.627
		c0,154.618,125.347,279.965,279.967,279.965c67.482,0,129.326-23.934,177.646-63.706L1105.124,95.936z"/>
</g>
<g>
	<rect x="54.328" y="-0.001" fill="#4F4F4F" width="134.57" height="560.001"/>
	<rect x="214.286" y="128.369" fill="#707070" width="134.57" height="431.631"/>
	<rect x="370.439" y="272.345" fill="#C1C1C1" width="134.566" height="287.655"/>
</g>
</svg>
