<?xml version="1.0" encoding="utf-8"?>
<!-- Generator: Adobe Illustrator 16.0.0, SVG Export Plug-In . SVG Version: 6.00 Build 0)  -->
<!DOCTYPE svg PUBLIC "-//W3C//DTD SVG 1.1//EN" "http://www.w3.org/Graphics/SVG/1.1/DTD/svg11.dtd">
<svg version="1.1" id="Layer_1" xmlns="http://www.w3.org/2000/svg" xmlns:xlink="http://www.w3.org/1999/xlink" x="0px" y="0px"
	 width="512px" height="560px" viewBox="0 0 512 560" enable-background="new 0 0 512 560" xml:space="preserve">
<g>
	<g>
		<path fill="#666666" d="M294.188,328.526c0.508-0.855,1.019-1.545,1.525-2.1c19.328-30.141,29.875-67.024,29.875-105.104
			c0-96.075-66.238-174.241-147.656-174.241c-81.419,0-147.656,78.166-147.656,174.241c0,38.509,10.781,75.786,30.536,106.108
			c0.206,0.285,0.416,0.609,0.626,0.958c0.642,0.964,1.287,1.926,1.949,2.876c7.378,9.584,16.848,7.374,19.581,6.464
			c0.257-0.096,0.519-0.189,0.776-0.285l0.004-0.004c9.755-3.607,20.583-6.649,32.283-9.042l20.453-4.176l-15.427-14.066
			c-12.547-11.438-20.714-26.95-22.991-43.684l-1.153-8.45l-8.503-0.693c-14.005-1.143-24.979-13.044-24.979-27.106
			c0-14.013,10.5-25.65,24.421-27.068l9.378-0.957l0.127-7.458c9.45-2.784,51.104-16.252,80.373-44.907
			c6.896,8.05,32.75,34.655,80.786,45.056l0.123,7.31l9.375,0.957c13.922,1.422,24.416,13.056,24.416,27.068
			c0,14.063-10.967,25.964-24.972,27.106l-8.503,0.693l-1.157,8.454c-2.277,16.726-10.44,32.233-22.987,43.68l-15.423,14.06
			l20.449,4.184c12.223,2.495,23.494,5.703,33.595,9.537C277.125,338.979,287.126,340.416,294.188,328.526z"/>
		<path fill="#FBCB99" d="M217.66,361.827v-38.576l-13.3,3.47c-5.953,1.558-12.104,2.345-18.286,2.345h-16.286
			c-6.218,0-12.408-0.801-18.405-2.376l-13.316-3.502v38.616l-39.602,9.475l8.614,30.741l3.569,2.172
			c5.347,3.255,19.922,11.296,39.804,15.659c9.343,2.049,18.777,3.081,28.013,3.081h0.004c22.9,0,45.313-6.32,66.614-18.789
			l3.707-2.161l8.456-30.173L217.66,361.827z"/>
		<path fill="#EDBA89" d="M163.19,419.843c-19.878-4.355-34.458-12.396-39.804-15.656l0,0l-8.472-31.127l32.457-7.825v-37.15
			l-9.304-4.896v38.616l-39.602,9.475l8.614,30.741l3.569,2.167c5.347,3.26,19.922,11.301,39.804,15.656
			c9.343,2.057,18.777,3.089,28.013,3.089h0.004c2.087,0,4.167-0.07,6.238-0.174C177.571,422.389,170.362,421.415,163.19,419.843z"
			/>
		<path fill="#5E5E5E" d="M230.58,408.678c-16.873,7.647-34.525,11.519-52.467,11.519c-9.288,0-18.63-1.042-27.76-3.09
			c-8.583-1.93-17.019-4.718-25.083-8.302l-15.51-6.88l39.25,138.757h57.841l39.337-139.078L230.58,408.678z"/>
		<polygon fill="#3F3F3F" points="109.757,401.917 149.011,540.673 161.748,540.673 124.328,408.389 		"/>
		<g>
			<path fill="#878787" d="M312.989,393.219c-4.722-2.701-10.068-5.247-15.652-7.62l-2.526-1.054
				c-17.189-7.033-36.078-12.325-46.003-14.892l-47.904,171.02h135.212c15.066,0,17.744-11.85,18.156-17.569v-50.973
				C354.271,430.457,331.934,405.291,312.989,393.219z"/>
			<path fill="#878787" d="M105.468,369.653c-9.929,2.565-28.813,7.857-45.999,14.892l-2.531,1.054
				c-5.584,2.373-10.931,4.919-15.652,7.62C22.342,405.291,0,430.457,0,472.131v50.98c0.42,5.712,3.098,17.562,18.164,17.562
				h135.208L105.468,369.653z"/>
		</g>
		<g>
			<path fill="#5B5B5B" d="M17.518,523.104v-26.946v-24.025c0-41.674,22.346-66.84,41.286-78.912
				c4.725-2.7,10.068-5.247,15.652-7.62l2.527-1.054c10.052-4.118,20.674-7.628,29.76-10.353l-1.275-4.539
				c-9.925,2.565-28.813,7.857-45.999,14.892l-2.531,1.054c-5.581,2.373-10.927,4.92-15.648,7.62
				c-18.944,12.072-41.286,37.238-41.286,78.912v50.974c0.412,5.633,3.022,17.213,17.514,17.554V523.104z"/>
			<path fill="#5B5B5B" d="M297.096,540.673V470.65c0-4.396-3.564-7.957-7.962-7.957c-4.399,0-7.957,3.561-7.957,7.957v70.022
				H297.096z"/>
			<path fill="#5B5B5B" d="M72.175,540.673V470.65c0-4.396-3.564-7.957-7.961-7.957c-4.4,0-7.965,3.561-7.965,7.957v70.022H72.175z"
				/>
		</g>
		<path fill="#FBCB99" d="M273.48,196.767c-4.276-1.333-8.926-0.557-12.535,2.099c-3.611,2.654-5.742,6.87-5.742,11.35v40.137
			c0,4.476,2.131,8.689,5.742,11.342c2.447,1.802,5.375,2.742,8.346,2.742c1.398,0,2.816-0.206,4.188-0.64
			c2.701-0.842,5.354-2.054,7.885-3.604c1.494-0.91,2.797-2.099,3.854-3.489c1.558-0.8,2.943-1.883,4.103-3.189
			c5.691-6.438,8.826-14.687,8.826-23.235C298.145,214.833,288.234,201.364,273.48,196.767z"/>
		<path fill="#EDBA89" d="M94.77,198.863c-3.608-2.653-8.262-3.43-12.539-2.101c-14.75,4.602-24.663,18.07-24.663,33.515
			c0,15.452,9.914,28.921,24.663,33.519c1.374,0.434,2.788,0.64,4.194,0.64c2.967,0,5.897-0.94,8.345-2.738
			c3.616-2.656,5.743-6.87,5.743-11.346v-40.141C100.513,205.735,98.386,201.52,94.77,198.863z"/>
		<path fill="#FBCB99" d="M263.71,197.311c0,0,0.06-0.293,0.08-0.752v-0.703c-0.087-1.688-0.824-4.439-4.321-6.146l-3.81-0.915
			c-36.862-8.854-58.922-26.701-69.375-37.373v-0.004c-8.888-8.135-18.104,0-18.104,0h-0.004
			c-25.103,21.837-56.229,33.21-68.685,37.145l-1.671,0.527c0,0.002,0,0.002,0,0.002c-4.254,1.396-5.458,4.105-5.751,6.034v61.528
			c0,42.857,34.866,77.723,77.719,77.723h16.286c42.854,0,77.716-34.865,77.716-77.723v-59.409L263.71,197.311z"/>
		<g>
			<path fill="#EDBA89" d="M183.322,149.286c-7.862-4.287-15.142,2.131-15.142,2.131h-0.004
				c-25.103,21.837-56.229,33.21-68.685,37.145l-1.671,0.527c0,0.002,0,0.002,0,0.002c-4.254,1.396-5.458,4.105-5.751,6.034v61.528
				c0,42.857,34.866,77.723,77.719,77.723h12.742c-42.858,0-77.719-34.865-77.719-77.723v-57.041c0-7.011,5.141-10.076,8.091-11.265
				c0.634-0.203,1.299-0.419,2.012-0.659h0.008l0,0c14.234-4.736,44.248-16.533,68.055-38.093L183.322,149.286z"/>
			<path fill="#EDBA89" d="M184.755,255.091c2.927,0,5.307,2.38,5.307,5.307c0,2.925-2.38,5.308-5.307,5.308H171.19
				c-2.923,0-5.303-2.383-5.303-5.308v-25.872c0-2.923,2.38-5.308,5.303-5.308c2.931,0,5.307,2.385,5.307,5.308v20.565H184.755z"/>
		</g>
		<path fill="#515151" d="M61.438,328.392c0.642,0.968,1.287,1.926,1.949,2.881c7.671,9.961,17.609,7.172,19.878,6.355
			c0.162-0.056,0.321-0.119,0.483-0.183l-1.279-1.728c-23.387-31.677-36.271-72.297-36.271-114.395
			c0-92.924,61.964-169.089,139.695-173.986c-2.634-0.166-5.292-0.255-7.96-0.255c-81.419,0-147.656,78.166-147.656,174.241
			c0,38.509,10.785,75.786,30.536,106.108C61.018,327.719,61.228,328.043,61.438,328.392z"/>
	</g>
	<g>
		<g>
		</g>
		<g>
			<g>
				<polygon fill="#5D5E5E" points="338.52,457.306 350.238,426.097 314.288,399.644 278.218,426.188 291.253,457.306 				"/>
				<polygon fill="#3A3A3A" points="291.253,457.306 291.938,458.949 275.854,558.71 354.052,558.71 337.939,458.854 
					338.52,457.306 				"/>
			</g>
			<polygon fill="#D2D2D7" points="285.878,558.71 302.168,457.738 286.425,420.151 235.923,372.133 245.813,444.129 
				277.904,558.71 			"/>
			<polygon fill="#E4E4EA" points="352.146,558.71 384.611,442.811 394.502,370.798 341.953,420.009 327.75,457.833 344.023,558.71 
							"/>
			<path fill="#F5F5F7" d="M352.896,440.231c10.393,7.647,16.678,0.84,19.022-2.701l33.115-68.06l-42.735-28.208l-10.083,18.163
				l-37.586,39.014l-36.573-35.622l-7.089-24.64l-47.413,31.288l32.331,66.452c0.891,1.771,7.446,13.51,19.95,4.321l38.454-28.304
				l36.647,26.973C351.518,439.258,352.163,439.689,352.896,440.231z"/>
			<path fill="#636363" d="M319.736,1.29h-10.023c-68.507,0-124.237,55.739-124.237,124.244v16.567v15.51v26.202
				c0,0,28.287-2.805,31.764-16.522l-0.024-0.012c1.196-1.299,2.198-2.778,2.899-4.434c16.048-0.485,90.994-1.065,133.793-52.758
				c5.109,14.941,22.39,43.236,55.631,52.147c0.689,1.803,1.707,3.427,2.95,4.834l-0.273,0.224
				c3.474,13.718,31.765,16.522,31.765,16.522v-26.311V142.1v-16.567C443.982,57.029,388.245,1.29,319.736,1.29z M413.414,158.37
				l1.196-0.865h0.167l-1.949,1.441L413.414,158.37z M412.804,158.744l0.131-0.424l0.416-0.815h0.171l-0.495,1.025L412.804,158.744z
				 M409.509,161.293l-0.048-0.065l3.066-2.218l-0.729,0.699l-2.238,1.655L409.509,161.293z M412.036,160.57l-0.958,1.986
				c-0.008-0.002-0.012-0.002-0.021-0.006l-0.131-0.062c-0.022-0.008-0.051-0.025-0.066-0.036l1.563-3.108l0.04-0.038
				L412.036,160.57z"/>
			<path fill="#545454" d="M207.375,157.609v-15.508v-16.569c0-66.519,52.542-120.98,118.305-124.09
				c-1.974-0.095-3.949-0.152-5.941-0.152h-10.024c-68.507,0-124.237,55.737-124.237,124.242v16.569v15.508v26.204
				c0,0,12.5-1.248,21.898-6.104V157.609L207.375,157.609z"/>
			<path fill="#FBCB99" d="M429.059,165.803c-4.752-1.483-9.917-0.616-13.925,2.33c-4.004,2.949-6.373,7.629-6.373,12.604v44.575
				c0,4.969,2.364,9.65,6.373,12.595c2.722,2.004,5.978,3.048,9.269,3.048c1.557,0,3.133-0.231,4.653-0.711
				c3.002-0.935,5.945-2.283,8.757-4.008c1.652-1.011,3.105-2.329,4.273-3.872c1.731-0.887,3.271-2.091,4.563-3.547
				c6.316-7.143,9.802-16.306,9.802-25.799C456.45,185.863,445.444,170.905,429.059,165.803z"/>
			<path fill="#EDBA89" d="M214.777,168.131c-4.008-2.948-9.177-3.812-13.925-2.333c-16.381,5.107-27.392,20.065-27.392,37.221
				c0,17.159,11.006,32.112,27.392,37.222c1.521,0.483,3.093,0.715,4.654,0.715c3.291,0,6.551-1.044,9.271-3.048
				c4.008-2.948,6.373-7.626,6.373-12.599v-44.581C221.149,175.759,218.785,171.08,214.777,168.131z"/>
			<path fill="#FBCB99" d="M357.661,303.02c-3.074-2.945-7.205-4.49-11.49-4.332l-0.526,0.023c-0.951,0.035-1.905,0.158-2.84,0.359
				c-6.045,1.344-12.199,2.033-18.287,2.033h-19.121c-6.273,0-12.606-0.723-18.83-2.151c-4.653-1.073-9.524,0.044-13.243,3.011
				c-3.731,2.971-5.901,7.474-5.901,12.234v45.499l-0.008,0.157c-0.246,4.513,1.47,8.912,4.702,12.064l31.431,30.615
				c2.928,2.849,6.844,4.437,10.916,4.437c0.079,0,0.167,0,0.25,0c4.167-0.07,8.131-1.79,11.016-4.793l32.381-33.608
				c2.813-2.915,4.381-6.806,4.381-10.854v-43.399C362.488,310.046,360.746,305.967,357.661,303.02z"/>
			<path fill="#EDBA89" d="M317.63,397.837l-31.435-30.606c-3.236-3.156-4.951-7.558-4.702-12.072l0.012-0.15V309.5
				c0-4.001,1.548-7.811,4.253-10.688c-4.4-0.771-8.927,0.354-12.436,3.146c-3.727,2.971-5.897,7.478-5.897,12.238v45.495
				l-0.012,0.153c-0.242,4.521,1.47,8.92,4.702,12.072l31.431,30.615c2.927,2.849,6.845,4.437,10.916,4.437c0.083,0,0.17,0,0.253,0
				c4.163-0.07,8.127-1.795,11.012-4.797l0.143-0.146C322.783,401.497,319.9,400.055,317.63,397.837z"/>
			<path fill="#FBCB99" d="M406.404,153.035c-1.894-0.705-3.676-1.526-5.427-2.4c-26.278-12.262-37.189-28.215-41.583-37.734
				c-0.262-0.358-0.526-0.753-0.787-1.252c-3.142-5.776-8.041-2.119-8.041-2.119l-0.021-0.012
				c-24.548,18.825-51.356,29.836-73.647,36.242c-8.679,2.564-16.991,4.42-24.508,5.767c-14.939,2.74-24.544,3.104-24.544,3.104
				c-8.187,0.587-14.524,7.403-14.524,15.605v63.823c0,50.77,41.306,92.066,92.073,92.066h19.123
				c50.758,0,92.061-41.297,92.061-92.066v-66.366C416.583,161.158,412.519,155.316,406.404,153.035z"/>
			<path fill="#EDBA89" d="M232.097,234.06v-63.823c0-8.202,6.337-15.017,14.516-15.605c0,0,9.604-0.364,24.552-3.104
				c7.517-1.347,15.831-3.202,24.512-5.767c19.724-5.672,42.989-14.96,65.101-30.069c-0.519-0.977-0.978-1.909-1.381-2.79
				c-0.263-0.358-0.527-0.753-0.789-1.252c-3.145-5.778-8.041-2.119-8.041-2.119l-0.02-0.012
				c-24.548,18.825-51.357,29.836-73.648,36.24c-8.678,2.566-16.99,4.422-24.507,5.767c-14.939,2.742-24.544,3.106-24.544,3.106
				c-8.187,0.585-14.528,7.403-14.528,15.604v63.825c0,50.77,41.306,92.066,92.078,92.066h18.758
				C273.398,326.126,232.097,284.829,232.097,234.06z"/>
			<g>
				<path fill="#878787" d="M135.715,558.71h152.477L233.55,363.649l-56.352,23.485l-0.075,0.027
					c-22.885,8.032-61.616,37.179-61.616,95.424v55.939C115.809,544.555,118.359,558.71,135.715,558.71z"/>
				<path fill="#878787" d="M512.188,539.2v-56.605c0-58.966-40.283-88.19-61.702-95.467l-54.229-22.592L341.861,558.71h150.154
					C508.754,558.71,511.725,545.545,512.188,539.2z"/>
			</g>
			<g>
				<path fill="#5B5B5B" d="M233.55,363.649l-56.352,23.485l-0.075,0.027c-22.885,8.032-61.616,37.179-61.616,95.424v55.939
					c0.301,6.027,2.852,20.184,20.207,20.184h2.531v-76.123c0-58.245,38.727-87.392,61.615-95.424l0.079-0.027l35.982-15.003
					L233.55,363.649z"/>
				<path fill="#5B5B5B" d="M448.688,558.71v-77.763c0-4.889-3.956-8.85-8.84-8.85c-4.888,0-8.84,3.961-8.84,8.85v77.763H448.688z"
					/>
				<path fill="#5B5B5B" d="M198.899,558.71v-77.763c0-4.889-3.953-8.85-8.836-8.85s-8.844,3.961-8.844,8.85v77.763H198.899z"/>
			</g>
			<path fill="#EDBA89" d="M323.928,241.558c3.252,0,5.895,2.642,5.895,5.891c0,3.25-2.643,5.894-5.895,5.894H308.87
				c-3.251,0-5.897-2.644-5.897-5.894v-28.73c0-3.249,2.646-5.896,5.897-5.896c3.248,0,5.894,2.647,5.894,5.896v22.84
				L323.928,241.558L323.928,241.558z"/>
		</g>
	</g>
</g>
</svg>
